%TF.GenerationSoftware,KiCad,Pcbnew,9.0.6-9.0.6~ubuntu24.04.1*%
%TF.CreationDate,2025-11-29T12:56:03-05:00*%
%TF.ProjectId,CardPCB,43617264-5043-4422-9e6b-696361645f70,rev?*%
%TF.SameCoordinates,Original*%
%TF.FileFunction,Paste,Top*%
%TF.FilePolarity,Positive*%
%FSLAX46Y46*%
G04 Gerber Fmt 4.6, Leading zero omitted, Abs format (unit mm)*
G04 Created by KiCad (PCBNEW 9.0.6-9.0.6~ubuntu24.04.1) date 2025-11-29 12:56:03*
%MOMM*%
%LPD*%
G01*
G04 APERTURE LIST*
G04 Aperture macros list*
%AMRoundRect*
0 Rectangle with rounded corners*
0 $1 Rounding radius*
0 $2 $3 $4 $5 $6 $7 $8 $9 X,Y pos of 4 corners*
0 Add a 4 corners polygon primitive as box body*
4,1,4,$2,$3,$4,$5,$6,$7,$8,$9,$2,$3,0*
0 Add four circle primitives for the rounded corners*
1,1,$1+$1,$2,$3*
1,1,$1+$1,$4,$5*
1,1,$1+$1,$6,$7*
1,1,$1+$1,$8,$9*
0 Add four rect primitives between the rounded corners*
20,1,$1+$1,$2,$3,$4,$5,0*
20,1,$1+$1,$4,$5,$6,$7,0*
20,1,$1+$1,$6,$7,$8,$9,0*
20,1,$1+$1,$8,$9,$2,$3,0*%
G04 Aperture macros list end*
%ADD10RoundRect,0.162500X-0.447500X-0.162500X0.447500X-0.162500X0.447500X0.162500X-0.447500X0.162500X0*%
%ADD11R,1.200000X1.200000*%
%ADD12R,1.500000X1.600000*%
%ADD13RoundRect,0.250000X0.625000X-0.400000X0.625000X0.400000X-0.625000X0.400000X-0.625000X-0.400000X0*%
%ADD14RoundRect,0.250000X-0.475000X0.250000X-0.475000X-0.250000X0.475000X-0.250000X0.475000X0.250000X0*%
%ADD15RoundRect,0.250000X0.450000X-0.350000X0.450000X0.350000X-0.450000X0.350000X-0.450000X-0.350000X0*%
%ADD16RoundRect,0.162500X0.837500X0.162500X-0.837500X0.162500X-0.837500X-0.162500X0.837500X-0.162500X0*%
%ADD17RoundRect,0.150000X-0.150000X0.825000X-0.150000X-0.825000X0.150000X-0.825000X0.150000X0.825000X0*%
%ADD18RoundRect,0.225000X-0.375000X0.225000X-0.375000X-0.225000X0.375000X-0.225000X0.375000X0.225000X0*%
%ADD19RoundRect,0.250000X0.475000X-0.250000X0.475000X0.250000X-0.475000X0.250000X-0.475000X-0.250000X0*%
%ADD20RoundRect,0.250000X-1.500000X-0.900000X1.500000X-0.900000X1.500000X0.900000X-1.500000X0.900000X0*%
%ADD21RoundRect,0.250000X0.350000X0.450000X-0.350000X0.450000X-0.350000X-0.450000X0.350000X-0.450000X0*%
%ADD22R,0.500000X2.140000*%
%ADD23R,0.970000X0.800000*%
%ADD24RoundRect,0.250000X-0.625000X0.400000X-0.625000X-0.400000X0.625000X-0.400000X0.625000X0.400000X0*%
%ADD25C,0.350000*%
%ADD26C,0.100000*%
G04 APERTURE END LIST*
D10*
%TO.C,Q2*%
X123190000Y-58550000D03*
X123190000Y-60450000D03*
X125810000Y-59500000D03*
%TD*%
D11*
%TO.C,RV1*%
X110000000Y-91000000D03*
D12*
X113250000Y-92000000D03*
D11*
X110000000Y-93000000D03*
%TD*%
D13*
%TO.C,R3*%
X159500000Y-105050000D03*
X159500000Y-101950000D03*
%TD*%
D14*
%TO.C,C1*%
X117000000Y-92000000D03*
X117000000Y-93900000D03*
%TD*%
D15*
%TO.C,R1*%
X136500000Y-61000000D03*
X136500000Y-59000000D03*
%TD*%
D16*
%TO.C,Q1*%
X167710000Y-104950000D03*
X167710000Y-103050000D03*
X164290000Y-104000000D03*
%TD*%
D17*
%TO.C,U1*%
X112905000Y-80025000D03*
X111635000Y-80025000D03*
X110365000Y-80025000D03*
X109095000Y-80025000D03*
X109095000Y-84975000D03*
X110365000Y-84975000D03*
X111635000Y-84975000D03*
X112905000Y-84975000D03*
%TD*%
D18*
%TO.C,D2*%
X131000000Y-58350000D03*
X131000000Y-61650000D03*
%TD*%
D19*
%TO.C,C2*%
X107000000Y-85000000D03*
X107000000Y-83100000D03*
%TD*%
D20*
%TO.C,D4*%
X142800000Y-103500000D03*
X148200000Y-103500000D03*
%TD*%
D21*
%TO.C,R2*%
X113500000Y-87500000D03*
X111500000Y-87500000D03*
%TD*%
D22*
%TO.C,D6*%
X182320000Y-80605000D03*
X182320000Y-83245000D03*
D23*
X183850000Y-80350000D03*
X183850000Y-81400000D03*
X183850000Y-82450000D03*
X183850000Y-83500000D03*
X185070000Y-80350000D03*
X185070000Y-81400000D03*
X185070000Y-82450000D03*
X185070000Y-83500000D03*
D22*
X186600000Y-80605000D03*
X186600000Y-83245000D03*
%TD*%
D24*
%TO.C,R4*%
X178500000Y-80350000D03*
X178500000Y-83450000D03*
%TD*%
D20*
%TO.C,D3*%
X130300000Y-103500000D03*
X135700000Y-103500000D03*
%TD*%
D25*
X117170000Y-70500000D03*
X112670000Y-70500000D03*
X108170000Y-70500000D03*
X108170000Y-77000000D03*
X112670000Y-77000000D03*
X117170000Y-77000000D03*
D26*
X183500000Y-72000000D03*
X183500000Y-92000000D03*
D25*
X114750000Y-62250000D03*
X118250000Y-62250000D03*
X148500000Y-93500000D03*
X148500000Y-69500000D03*
X124780000Y-69500000D03*
X124780000Y-82200000D03*
M02*
