%TF.GenerationSoftware,KiCad,Pcbnew,9.0.6-9.0.6~ubuntu24.04.1*%
%TF.CreationDate,2025-11-29T12:56:03-05:00*%
%TF.ProjectId,CardPCB,43617264-5043-4422-9e6b-696361645f70,rev?*%
%TF.SameCoordinates,Original*%
%TF.FileFunction,Copper,L2,Bot*%
%TF.FilePolarity,Positive*%
%FSLAX46Y46*%
G04 Gerber Fmt 4.6, Leading zero omitted, Abs format (unit mm)*
G04 Created by KiCad (PCBNEW 9.0.6-9.0.6~ubuntu24.04.1) date 2025-11-29 12:56:03*
%MOMM*%
%LPD*%
G01*
G04 APERTURE LIST*
%TA.AperFunction,Conductor*%
%ADD10C,0.200000*%
%TD*%
%TA.AperFunction,ComponentPad*%
%ADD11R,2.000000X2.000000*%
%TD*%
%TA.AperFunction,ComponentPad*%
%ADD12C,2.200000*%
%TD*%
%TA.AperFunction,ComponentPad*%
%ADD13R,12.000000X12.000000*%
%TD*%
%TA.AperFunction,ComponentPad*%
%ADD14R,1.800000X1.800000*%
%TD*%
%TA.AperFunction,ComponentPad*%
%ADD15C,1.800000*%
%TD*%
%TA.AperFunction,ComponentPad*%
%ADD16C,1.530000*%
%TD*%
%TA.AperFunction,ViaPad*%
%ADD17C,0.600000*%
%TD*%
%TA.AperFunction,Conductor*%
%ADD18C,0.400000*%
%TD*%
%ADD19C,0.300000*%
%ADD20C,0.350000*%
%ADD21C,0.100000*%
G04 APERTURE END LIST*
%TO.N,Net-(D6-PAD)*%
D10*
X177750000Y-78000000D02*
X189250000Y-78000000D01*
X189250000Y-86000000D01*
X177750000Y-86000000D01*
X177750000Y-78000000D01*
%TA.AperFunction,Conductor*%
G36*
X177750000Y-78000000D02*
G01*
X189250000Y-78000000D01*
X189250000Y-86000000D01*
X177750000Y-86000000D01*
X177750000Y-78000000D01*
G37*
%TD.AperFunction*%
%TD*%
D11*
%TO.P,SW1,1,A*%
%TO.N,Net-(Q2-D)*%
X117170000Y-70500000D03*
D12*
%TO.P,SW1,2,B*%
%TO.N,+BATT*%
X112670000Y-70500000D03*
%TO.P,SW1,3,C*%
%TO.N,unconnected-(SW1A-C-Pad3)*%
X108170000Y-70500000D03*
%TO.P,SW1,4,A*%
%TO.N,unconnected-(SW1B-A-Pad4)*%
X108170000Y-77000000D03*
%TO.P,SW1,5,B*%
%TO.N,unconnected-(SW1B-B-Pad5)*%
X112670000Y-77000000D03*
%TO.P,SW1,6,C*%
%TO.N,unconnected-(SW1B-C-Pad6)*%
X117170000Y-77000000D03*
%TD*%
D13*
%TO.P,H1,1,1*%
%TO.N,Net-(D6-PAD)*%
X183500000Y-72000000D03*
%TD*%
%TO.P,H2,1,1*%
%TO.N,Net-(D6-PAD)*%
X183500000Y-92000000D03*
%TD*%
D14*
%TO.P,BT2,1,+*%
%TO.N,+BATT*%
X114750000Y-62250000D03*
D15*
%TO.P,BT2,2,-*%
%TO.N,-BATT*%
X118250000Y-62250000D03*
%TD*%
D16*
%TO.P,BT1,1,+*%
%TO.N,+BATT*%
X124780000Y-69500000D03*
%TO.P,BT1,2,-*%
%TO.N,-BATT*%
X124780000Y-82200000D03*
%TD*%
D17*
%TO.N,+BATT*%
X114750000Y-66500000D03*
%TO.N,-BATT*%
X161750000Y-101500000D03*
X138500000Y-60750000D03*
X118500000Y-93900000D03*
X115080000Y-82200000D03*
X105500000Y-83000000D03*
%TO.N,Net-(Q2-D)*%
X122000000Y-58550000D03*
%TO.N,VCC*%
X106000000Y-81000000D03*
X114000000Y-86000000D03*
%TD*%
D18*
%TO.N,Net-(Q2-D)*%
X122000000Y-65670000D02*
X117170000Y-70500000D01*
X122000000Y-58550000D02*
X122000000Y-65670000D01*
%TO.N,VCC*%
X106000000Y-81000000D02*
X111000000Y-86000000D01*
X111000000Y-86000000D02*
X114000000Y-86000000D01*
%TD*%
%TA.AperFunction,Conductor*%
%TO.N,-BATT*%
G36*
X191442539Y-57520185D02*
G01*
X191488294Y-57572989D01*
X191499500Y-57624500D01*
X191499500Y-106375500D01*
X191479815Y-106442539D01*
X191427011Y-106488294D01*
X191375500Y-106499500D01*
X104624500Y-106499500D01*
X104557461Y-106479815D01*
X104511706Y-106427011D01*
X104500500Y-106375500D01*
X104500500Y-102340316D01*
X105249500Y-102340316D01*
X105249500Y-102659683D01*
X105280803Y-102977522D01*
X105343109Y-103290754D01*
X105435820Y-103596382D01*
X105558040Y-103891446D01*
X105558042Y-103891451D01*
X105708584Y-104173094D01*
X105708601Y-104173122D01*
X105886012Y-104438638D01*
X105886029Y-104438661D01*
X106088638Y-104685540D01*
X106314459Y-104911361D01*
X106314464Y-104911365D01*
X106314465Y-104911366D01*
X106561344Y-105113975D01*
X106561351Y-105113980D01*
X106561361Y-105113987D01*
X106826877Y-105291398D01*
X106826882Y-105291401D01*
X106826894Y-105291409D01*
X106826903Y-105291413D01*
X106826905Y-105291415D01*
X107108548Y-105441957D01*
X107108550Y-105441957D01*
X107108556Y-105441961D01*
X107403619Y-105564180D01*
X107709240Y-105656889D01*
X108022477Y-105719196D01*
X108340313Y-105750500D01*
X108340316Y-105750500D01*
X108659684Y-105750500D01*
X108659687Y-105750500D01*
X108977523Y-105719196D01*
X109290760Y-105656889D01*
X109596381Y-105564180D01*
X109891444Y-105441961D01*
X110173106Y-105291409D01*
X110438656Y-105113975D01*
X110685535Y-104911366D01*
X110911366Y-104685535D01*
X111113975Y-104438656D01*
X111291409Y-104173106D01*
X111441961Y-103891444D01*
X111564180Y-103596381D01*
X111656889Y-103290760D01*
X111719196Y-102977523D01*
X111750500Y-102659687D01*
X111750500Y-102340316D01*
X184249500Y-102340316D01*
X184249500Y-102659683D01*
X184280803Y-102977522D01*
X184343109Y-103290754D01*
X184435820Y-103596382D01*
X184558040Y-103891446D01*
X184558042Y-103891451D01*
X184708584Y-104173094D01*
X184708601Y-104173122D01*
X184886012Y-104438638D01*
X184886029Y-104438661D01*
X185088638Y-104685540D01*
X185314459Y-104911361D01*
X185314464Y-104911365D01*
X185314465Y-104911366D01*
X185561344Y-105113975D01*
X185561351Y-105113980D01*
X185561361Y-105113987D01*
X185826877Y-105291398D01*
X185826882Y-105291401D01*
X185826894Y-105291409D01*
X185826903Y-105291413D01*
X185826905Y-105291415D01*
X186108548Y-105441957D01*
X186108550Y-105441957D01*
X186108556Y-105441961D01*
X186403619Y-105564180D01*
X186709240Y-105656889D01*
X187022477Y-105719196D01*
X187340313Y-105750500D01*
X187340316Y-105750500D01*
X187659684Y-105750500D01*
X187659687Y-105750500D01*
X187977523Y-105719196D01*
X188290760Y-105656889D01*
X188596381Y-105564180D01*
X188891444Y-105441961D01*
X189173106Y-105291409D01*
X189438656Y-105113975D01*
X189685535Y-104911366D01*
X189911366Y-104685535D01*
X190113975Y-104438656D01*
X190291409Y-104173106D01*
X190441961Y-103891444D01*
X190564180Y-103596381D01*
X190656889Y-103290760D01*
X190719196Y-102977523D01*
X190750500Y-102659687D01*
X190750500Y-102340313D01*
X190719196Y-102022477D01*
X190656889Y-101709240D01*
X190564180Y-101403619D01*
X190441961Y-101108556D01*
X190392917Y-101016802D01*
X190291415Y-100826905D01*
X190291413Y-100826903D01*
X190291409Y-100826894D01*
X190291398Y-100826877D01*
X190113987Y-100561361D01*
X190113980Y-100561351D01*
X190113975Y-100561344D01*
X189911366Y-100314465D01*
X189911365Y-100314464D01*
X189911361Y-100314459D01*
X189685540Y-100088638D01*
X189438661Y-99886029D01*
X189438638Y-99886012D01*
X189173122Y-99708601D01*
X189173094Y-99708584D01*
X188891451Y-99558042D01*
X188891446Y-99558040D01*
X188596382Y-99435820D01*
X188290754Y-99343109D01*
X187977521Y-99280803D01*
X187977522Y-99280803D01*
X187738141Y-99257227D01*
X187659687Y-99249500D01*
X187340313Y-99249500D01*
X187267822Y-99256639D01*
X187022477Y-99280803D01*
X186709245Y-99343109D01*
X186403617Y-99435820D01*
X186108553Y-99558040D01*
X186108548Y-99558042D01*
X185826905Y-99708584D01*
X185826877Y-99708601D01*
X185561361Y-99886012D01*
X185561338Y-99886029D01*
X185314459Y-100088638D01*
X185088638Y-100314459D01*
X184886029Y-100561338D01*
X184886012Y-100561361D01*
X184708601Y-100826877D01*
X184708584Y-100826905D01*
X184558042Y-101108548D01*
X184558040Y-101108553D01*
X184435820Y-101403617D01*
X184343109Y-101709245D01*
X184280803Y-102022477D01*
X184249500Y-102340316D01*
X111750500Y-102340316D01*
X111750500Y-102340313D01*
X111719196Y-102022477D01*
X111656889Y-101709240D01*
X111564180Y-101403619D01*
X111441961Y-101108556D01*
X111392917Y-101016802D01*
X111291415Y-100826905D01*
X111291413Y-100826903D01*
X111291409Y-100826894D01*
X111291398Y-100826877D01*
X111113987Y-100561361D01*
X111113980Y-100561351D01*
X111113975Y-100561344D01*
X110911366Y-100314465D01*
X110911365Y-100314464D01*
X110911361Y-100314459D01*
X110685540Y-100088638D01*
X110438661Y-99886029D01*
X110438638Y-99886012D01*
X110173122Y-99708601D01*
X110173094Y-99708584D01*
X109891451Y-99558042D01*
X109891446Y-99558040D01*
X109596382Y-99435820D01*
X109290754Y-99343109D01*
X108977521Y-99280803D01*
X108977522Y-99280803D01*
X108738141Y-99257227D01*
X108659687Y-99249500D01*
X108340313Y-99249500D01*
X108267822Y-99256639D01*
X108022477Y-99280803D01*
X107709245Y-99343109D01*
X107403617Y-99435820D01*
X107108553Y-99558040D01*
X107108548Y-99558042D01*
X106826905Y-99708584D01*
X106826877Y-99708601D01*
X106561361Y-99886012D01*
X106561338Y-99886029D01*
X106314459Y-100088638D01*
X106088638Y-100314459D01*
X105886029Y-100561338D01*
X105886012Y-100561361D01*
X105708601Y-100826877D01*
X105708584Y-100826905D01*
X105558042Y-101108548D01*
X105558040Y-101108553D01*
X105435820Y-101403617D01*
X105343109Y-101709245D01*
X105280803Y-102022477D01*
X105249500Y-102340316D01*
X104500500Y-102340316D01*
X104500500Y-93370525D01*
X146524500Y-93370525D01*
X146524500Y-93629474D01*
X146524501Y-93629491D01*
X146558299Y-93886217D01*
X146558300Y-93886222D01*
X146558301Y-93886228D01*
X146558302Y-93886230D01*
X146625324Y-94136364D01*
X146724423Y-94375609D01*
X146724427Y-94375619D01*
X146853906Y-94599883D01*
X147011551Y-94805331D01*
X147011557Y-94805338D01*
X147194661Y-94988442D01*
X147194668Y-94988448D01*
X147400116Y-95146093D01*
X147624380Y-95275572D01*
X147624381Y-95275572D01*
X147624384Y-95275574D01*
X147863634Y-95374675D01*
X148113772Y-95441699D01*
X148370519Y-95475500D01*
X148370526Y-95475500D01*
X148629474Y-95475500D01*
X148629481Y-95475500D01*
X148886228Y-95441699D01*
X149136366Y-95374675D01*
X149375616Y-95275574D01*
X149599884Y-95146093D01*
X149805333Y-94988447D01*
X149988447Y-94805333D01*
X150146093Y-94599884D01*
X150275574Y-94375616D01*
X150374675Y-94136366D01*
X150441699Y-93886228D01*
X150475500Y-93629481D01*
X150475500Y-93370519D01*
X150441699Y-93113772D01*
X150374675Y-92863634D01*
X150275574Y-92624384D01*
X150146093Y-92400116D01*
X149988447Y-92194667D01*
X149988442Y-92194661D01*
X149805338Y-92011557D01*
X149805331Y-92011551D01*
X149599883Y-91853906D01*
X149375619Y-91724427D01*
X149375609Y-91724423D01*
X149136364Y-91625324D01*
X149011297Y-91591813D01*
X148886228Y-91558301D01*
X148886222Y-91558300D01*
X148886217Y-91558299D01*
X148629491Y-91524501D01*
X148629486Y-91524500D01*
X148629481Y-91524500D01*
X148370519Y-91524500D01*
X148370513Y-91524500D01*
X148370508Y-91524501D01*
X148113782Y-91558299D01*
X148113775Y-91558300D01*
X148113772Y-91558301D01*
X148060908Y-91572465D01*
X147863635Y-91625324D01*
X147624390Y-91724423D01*
X147624380Y-91724427D01*
X147400116Y-91853906D01*
X147194668Y-92011551D01*
X147194661Y-92011557D01*
X147011557Y-92194661D01*
X147011551Y-92194668D01*
X146853906Y-92400116D01*
X146724427Y-92624380D01*
X146724423Y-92624390D01*
X146625324Y-92863635D01*
X146558302Y-93113769D01*
X146558299Y-93113782D01*
X146524501Y-93370508D01*
X146524500Y-93370525D01*
X104500500Y-93370525D01*
X104500500Y-80921153D01*
X105199500Y-80921153D01*
X105199500Y-81078846D01*
X105230261Y-81233489D01*
X105230264Y-81233501D01*
X105290602Y-81379172D01*
X105290609Y-81379185D01*
X105378210Y-81510288D01*
X105378213Y-81510292D01*
X105489710Y-81621789D01*
X105521274Y-81642879D01*
X105537272Y-81655594D01*
X105549019Y-81666626D01*
X105552557Y-81669949D01*
X105967294Y-81960602D01*
X105983810Y-81974467D01*
X110553453Y-86544111D01*
X110553454Y-86544112D01*
X110668192Y-86620777D01*
X110795667Y-86673578D01*
X110795672Y-86673580D01*
X110795676Y-86673580D01*
X110795677Y-86673581D01*
X110931003Y-86700500D01*
X110931006Y-86700500D01*
X110931007Y-86700500D01*
X113322397Y-86700500D01*
X113343879Y-86702374D01*
X113842662Y-86790115D01*
X113842700Y-86790119D01*
X113842701Y-86790120D01*
X113889970Y-86796152D01*
X113889971Y-86796152D01*
X113889979Y-86796153D01*
X113889986Y-86796152D01*
X113890862Y-86796181D01*
X113911107Y-86798500D01*
X113921158Y-86800500D01*
X113921159Y-86800500D01*
X114078844Y-86800500D01*
X114078845Y-86800499D01*
X114233497Y-86769737D01*
X114379179Y-86709394D01*
X114510289Y-86621789D01*
X114621789Y-86510289D01*
X114709394Y-86379179D01*
X114769737Y-86233497D01*
X114800500Y-86078842D01*
X114800500Y-85921158D01*
X114800500Y-85921155D01*
X114800499Y-85921153D01*
X114769738Y-85766510D01*
X114769737Y-85766503D01*
X114766078Y-85757669D01*
X114709397Y-85620827D01*
X114709390Y-85620814D01*
X114621789Y-85489711D01*
X114621786Y-85489707D01*
X114510292Y-85378213D01*
X114510288Y-85378210D01*
X114379185Y-85290609D01*
X114379172Y-85290602D01*
X114233501Y-85230264D01*
X114233489Y-85230261D01*
X114078845Y-85199500D01*
X114078842Y-85199500D01*
X113921158Y-85199500D01*
X113921154Y-85199500D01*
X113883922Y-85206905D01*
X113863626Y-85209226D01*
X113842661Y-85209884D01*
X113343872Y-85297625D01*
X113322389Y-85299500D01*
X111341519Y-85299500D01*
X111274480Y-85279815D01*
X111253838Y-85263181D01*
X108091093Y-82100436D01*
X123515000Y-82100436D01*
X123515000Y-82299563D01*
X123546147Y-82496222D01*
X123607679Y-82685594D01*
X123698077Y-82863008D01*
X123725580Y-82900863D01*
X123725581Y-82900864D01*
X124288871Y-82337574D01*
X124304755Y-82396853D01*
X124371898Y-82513147D01*
X124466853Y-82608102D01*
X124583147Y-82675245D01*
X124642425Y-82691128D01*
X124079134Y-83254417D01*
X124116994Y-83281924D01*
X124294405Y-83372320D01*
X124483777Y-83433852D01*
X124680437Y-83465000D01*
X124879563Y-83465000D01*
X125076222Y-83433852D01*
X125265594Y-83372320D01*
X125443005Y-83281924D01*
X125480863Y-83254418D01*
X125480863Y-83254417D01*
X124917574Y-82691128D01*
X124976853Y-82675245D01*
X125093147Y-82608102D01*
X125188102Y-82513147D01*
X125255245Y-82396853D01*
X125271128Y-82337574D01*
X125834417Y-82900863D01*
X125834418Y-82900863D01*
X125861924Y-82863005D01*
X125952320Y-82685594D01*
X126013852Y-82496222D01*
X126045000Y-82299563D01*
X126045000Y-82100436D01*
X126013852Y-81903777D01*
X125952320Y-81714405D01*
X125861924Y-81536994D01*
X125834417Y-81499135D01*
X125834417Y-81499134D01*
X125271128Y-82062424D01*
X125255245Y-82003147D01*
X125188102Y-81886853D01*
X125093147Y-81791898D01*
X124976853Y-81724755D01*
X124917574Y-81708871D01*
X125480864Y-81145581D01*
X125480863Y-81145580D01*
X125443008Y-81118077D01*
X125265594Y-81027679D01*
X125076222Y-80966147D01*
X124879563Y-80935000D01*
X124680437Y-80935000D01*
X124483777Y-80966147D01*
X124294405Y-81027679D01*
X124116990Y-81118077D01*
X124079135Y-81145580D01*
X124079135Y-81145581D01*
X124642425Y-81708871D01*
X124583147Y-81724755D01*
X124466853Y-81791898D01*
X124371898Y-81886853D01*
X124304755Y-82003147D01*
X124288871Y-82062425D01*
X123725581Y-81499135D01*
X123725580Y-81499135D01*
X123698077Y-81536990D01*
X123607679Y-81714405D01*
X123546147Y-81903777D01*
X123515000Y-82100436D01*
X108091093Y-82100436D01*
X106974467Y-80983810D01*
X106960602Y-80967294D01*
X106669947Y-80552555D01*
X106640774Y-80514844D01*
X106640144Y-80514173D01*
X106627484Y-80498234D01*
X106621789Y-80489711D01*
X106510289Y-80378211D01*
X106510288Y-80378210D01*
X106510287Y-80378209D01*
X106379185Y-80290609D01*
X106379172Y-80290602D01*
X106233501Y-80230264D01*
X106233489Y-80230261D01*
X106078845Y-80199500D01*
X106078842Y-80199500D01*
X105921158Y-80199500D01*
X105921155Y-80199500D01*
X105766510Y-80230261D01*
X105766498Y-80230264D01*
X105620827Y-80290602D01*
X105620814Y-80290609D01*
X105489711Y-80378210D01*
X105489707Y-80378213D01*
X105378213Y-80489707D01*
X105378210Y-80489711D01*
X105290609Y-80620814D01*
X105290602Y-80620827D01*
X105230264Y-80766498D01*
X105230261Y-80766510D01*
X105199500Y-80921153D01*
X104500500Y-80921153D01*
X104500500Y-76874038D01*
X106569500Y-76874038D01*
X106569500Y-77125961D01*
X106608910Y-77374785D01*
X106686760Y-77614383D01*
X106801132Y-77838848D01*
X106949201Y-78042649D01*
X106949205Y-78042654D01*
X107127345Y-78220794D01*
X107127350Y-78220798D01*
X107283049Y-78333919D01*
X107331155Y-78368870D01*
X107474184Y-78441747D01*
X107555616Y-78483239D01*
X107555618Y-78483239D01*
X107555621Y-78483241D01*
X107795215Y-78561090D01*
X108044038Y-78600500D01*
X108044039Y-78600500D01*
X108295961Y-78600500D01*
X108295962Y-78600500D01*
X108544785Y-78561090D01*
X108784379Y-78483241D01*
X109008845Y-78368870D01*
X109212656Y-78220793D01*
X109390793Y-78042656D01*
X109538870Y-77838845D01*
X109653241Y-77614379D01*
X109731090Y-77374785D01*
X109770500Y-77125962D01*
X109770500Y-76874038D01*
X111069500Y-76874038D01*
X111069500Y-77125961D01*
X111108910Y-77374785D01*
X111186760Y-77614383D01*
X111301132Y-77838848D01*
X111449201Y-78042649D01*
X111449205Y-78042654D01*
X111627345Y-78220794D01*
X111627350Y-78220798D01*
X111783049Y-78333919D01*
X111831155Y-78368870D01*
X111974184Y-78441747D01*
X112055616Y-78483239D01*
X112055618Y-78483239D01*
X112055621Y-78483241D01*
X112295215Y-78561090D01*
X112544038Y-78600500D01*
X112544039Y-78600500D01*
X112795961Y-78600500D01*
X112795962Y-78600500D01*
X113044785Y-78561090D01*
X113284379Y-78483241D01*
X113508845Y-78368870D01*
X113712656Y-78220793D01*
X113890793Y-78042656D01*
X114038870Y-77838845D01*
X114153241Y-77614379D01*
X114231090Y-77374785D01*
X114270500Y-77125962D01*
X114270500Y-76874038D01*
X115569500Y-76874038D01*
X115569500Y-77125961D01*
X115608910Y-77374785D01*
X115686760Y-77614383D01*
X115801132Y-77838848D01*
X115949201Y-78042649D01*
X115949205Y-78042654D01*
X116127345Y-78220794D01*
X116127350Y-78220798D01*
X116283049Y-78333919D01*
X116331155Y-78368870D01*
X116474184Y-78441747D01*
X116555616Y-78483239D01*
X116555618Y-78483239D01*
X116555621Y-78483241D01*
X116795215Y-78561090D01*
X117044038Y-78600500D01*
X117044039Y-78600500D01*
X117295961Y-78600500D01*
X117295962Y-78600500D01*
X117544785Y-78561090D01*
X117784379Y-78483241D01*
X118008845Y-78368870D01*
X118212656Y-78220793D01*
X118390793Y-78042656D01*
X118538870Y-77838845D01*
X118653241Y-77614379D01*
X118731090Y-77374785D01*
X118770500Y-77125962D01*
X118770500Y-76874038D01*
X118731090Y-76625215D01*
X118653241Y-76385621D01*
X118653239Y-76385618D01*
X118653239Y-76385616D01*
X118611747Y-76304184D01*
X118538870Y-76161155D01*
X118519952Y-76135117D01*
X118390798Y-75957350D01*
X118390794Y-75957345D01*
X118212654Y-75779205D01*
X118212649Y-75779201D01*
X118008848Y-75631132D01*
X118008847Y-75631131D01*
X118008845Y-75631130D01*
X117938747Y-75595413D01*
X117784383Y-75516760D01*
X117544785Y-75438910D01*
X117295962Y-75399500D01*
X117044038Y-75399500D01*
X116919626Y-75419205D01*
X116795214Y-75438910D01*
X116555616Y-75516760D01*
X116331151Y-75631132D01*
X116127350Y-75779201D01*
X116127345Y-75779205D01*
X115949205Y-75957345D01*
X115949201Y-75957350D01*
X115801132Y-76161151D01*
X115686760Y-76385616D01*
X115608910Y-76625214D01*
X115569500Y-76874038D01*
X114270500Y-76874038D01*
X114231090Y-76625215D01*
X114153241Y-76385621D01*
X114153239Y-76385618D01*
X114153239Y-76385616D01*
X114111747Y-76304184D01*
X114038870Y-76161155D01*
X114019952Y-76135117D01*
X113890798Y-75957350D01*
X113890794Y-75957345D01*
X113712654Y-75779205D01*
X113712649Y-75779201D01*
X113508848Y-75631132D01*
X113508847Y-75631131D01*
X113508845Y-75631130D01*
X113438747Y-75595413D01*
X113284383Y-75516760D01*
X113044785Y-75438910D01*
X112795962Y-75399500D01*
X112544038Y-75399500D01*
X112419626Y-75419205D01*
X112295214Y-75438910D01*
X112055616Y-75516760D01*
X111831151Y-75631132D01*
X111627350Y-75779201D01*
X111627345Y-75779205D01*
X111449205Y-75957345D01*
X111449201Y-75957350D01*
X111301132Y-76161151D01*
X111186760Y-76385616D01*
X111108910Y-76625214D01*
X111069500Y-76874038D01*
X109770500Y-76874038D01*
X109731090Y-76625215D01*
X109653241Y-76385621D01*
X109653239Y-76385618D01*
X109653239Y-76385616D01*
X109611747Y-76304184D01*
X109538870Y-76161155D01*
X109519952Y-76135117D01*
X109390798Y-75957350D01*
X109390794Y-75957345D01*
X109212654Y-75779205D01*
X109212649Y-75779201D01*
X109008848Y-75631132D01*
X109008847Y-75631131D01*
X109008845Y-75631130D01*
X108938747Y-75595413D01*
X108784383Y-75516760D01*
X108544785Y-75438910D01*
X108295962Y-75399500D01*
X108044038Y-75399500D01*
X107919626Y-75419205D01*
X107795214Y-75438910D01*
X107555616Y-75516760D01*
X107331151Y-75631132D01*
X107127350Y-75779201D01*
X107127345Y-75779205D01*
X106949205Y-75957345D01*
X106949201Y-75957350D01*
X106801132Y-76161151D01*
X106686760Y-76385616D01*
X106608910Y-76625214D01*
X106569500Y-76874038D01*
X104500500Y-76874038D01*
X104500500Y-70374038D01*
X106569500Y-70374038D01*
X106569500Y-70625962D01*
X106597910Y-70805333D01*
X106608910Y-70874785D01*
X106686760Y-71114383D01*
X106801132Y-71338848D01*
X106949201Y-71542649D01*
X106949205Y-71542654D01*
X107127345Y-71720794D01*
X107127350Y-71720798D01*
X107305117Y-71849952D01*
X107331155Y-71868870D01*
X107474184Y-71941747D01*
X107555616Y-71983239D01*
X107555618Y-71983239D01*
X107555621Y-71983241D01*
X107795215Y-72061090D01*
X108044038Y-72100500D01*
X108044039Y-72100500D01*
X108295961Y-72100500D01*
X108295962Y-72100500D01*
X108544785Y-72061090D01*
X108784379Y-71983241D01*
X109008845Y-71868870D01*
X109212656Y-71720793D01*
X109390793Y-71542656D01*
X109538870Y-71338845D01*
X109653241Y-71114379D01*
X109731090Y-70874785D01*
X109770500Y-70625962D01*
X109770500Y-70374038D01*
X111069500Y-70374038D01*
X111069500Y-70625962D01*
X111097910Y-70805333D01*
X111108910Y-70874785D01*
X111186760Y-71114383D01*
X111301132Y-71338848D01*
X111449201Y-71542649D01*
X111449205Y-71542654D01*
X111627345Y-71720794D01*
X111627350Y-71720798D01*
X111805117Y-71849952D01*
X111831155Y-71868870D01*
X111974184Y-71941747D01*
X112055616Y-71983239D01*
X112055618Y-71983239D01*
X112055621Y-71983241D01*
X112295215Y-72061090D01*
X112544038Y-72100500D01*
X112544039Y-72100500D01*
X112795961Y-72100500D01*
X112795962Y-72100500D01*
X113044785Y-72061090D01*
X113284379Y-71983241D01*
X113508845Y-71868870D01*
X113712656Y-71720793D01*
X113890793Y-71542656D01*
X114038870Y-71338845D01*
X114153241Y-71114379D01*
X114231090Y-70874785D01*
X114270500Y-70625962D01*
X114270500Y-70374038D01*
X114231090Y-70125215D01*
X114153241Y-69885621D01*
X114153239Y-69885618D01*
X114153239Y-69885616D01*
X114107750Y-69796339D01*
X114038870Y-69661155D01*
X114015858Y-69629481D01*
X113937547Y-69521694D01*
X113937545Y-69521692D01*
X113890794Y-69457345D01*
X113885584Y-69452135D01*
X115669500Y-69452135D01*
X115669500Y-71547870D01*
X115669501Y-71547876D01*
X115675908Y-71607483D01*
X115726202Y-71742328D01*
X115726206Y-71742335D01*
X115812452Y-71857544D01*
X115812455Y-71857547D01*
X115927664Y-71943793D01*
X115927671Y-71943797D01*
X116062517Y-71994091D01*
X116062516Y-71994091D01*
X116069444Y-71994835D01*
X116122127Y-72000500D01*
X118217872Y-72000499D01*
X118277483Y-71994091D01*
X118412331Y-71943796D01*
X118527546Y-71857546D01*
X118613796Y-71742331D01*
X118664091Y-71607483D01*
X118670500Y-71547873D01*
X118670499Y-71055086D01*
X118680525Y-71006241D01*
X118688151Y-70988447D01*
X119368741Y-69400403D01*
X123514500Y-69400403D01*
X123514500Y-69599596D01*
X123545661Y-69796340D01*
X123545661Y-69796343D01*
X123607213Y-69985780D01*
X123678259Y-70125215D01*
X123697647Y-70163266D01*
X123814731Y-70324418D01*
X123955582Y-70465269D01*
X124116734Y-70582353D01*
X124151139Y-70599883D01*
X124294219Y-70672786D01*
X124483657Y-70734338D01*
X124483658Y-70734338D01*
X124483661Y-70734339D01*
X124680403Y-70765500D01*
X124680404Y-70765500D01*
X124879596Y-70765500D01*
X124879597Y-70765500D01*
X125076339Y-70734339D01*
X125076342Y-70734338D01*
X125076343Y-70734338D01*
X125265780Y-70672786D01*
X125265780Y-70672785D01*
X125265783Y-70672785D01*
X125443266Y-70582353D01*
X125604418Y-70465269D01*
X125745269Y-70324418D01*
X125862353Y-70163266D01*
X125952785Y-69985783D01*
X125985132Y-69886230D01*
X126014338Y-69796343D01*
X126014338Y-69796342D01*
X126014339Y-69796339D01*
X126045500Y-69599597D01*
X126045500Y-69400403D01*
X126040768Y-69370525D01*
X146524500Y-69370525D01*
X146524500Y-69629474D01*
X146524501Y-69629491D01*
X146558299Y-69886217D01*
X146558300Y-69886222D01*
X146558301Y-69886228D01*
X146558302Y-69886230D01*
X146625324Y-70136364D01*
X146724423Y-70375609D01*
X146724427Y-70375619D01*
X146853906Y-70599883D01*
X147011551Y-70805331D01*
X147011557Y-70805338D01*
X147194661Y-70988442D01*
X147194668Y-70988448D01*
X147400116Y-71146093D01*
X147624380Y-71275572D01*
X147624381Y-71275572D01*
X147624384Y-71275574D01*
X147863634Y-71374675D01*
X148113772Y-71441699D01*
X148370519Y-71475500D01*
X148370526Y-71475500D01*
X148629474Y-71475500D01*
X148629481Y-71475500D01*
X148886228Y-71441699D01*
X149136366Y-71374675D01*
X149375616Y-71275574D01*
X149599884Y-71146093D01*
X149805333Y-70988447D01*
X149988447Y-70805333D01*
X150146093Y-70599884D01*
X150275574Y-70375616D01*
X150374675Y-70136366D01*
X150441699Y-69886228D01*
X150475500Y-69629481D01*
X150475500Y-69370519D01*
X150441699Y-69113772D01*
X150374675Y-68863634D01*
X150275574Y-68624384D01*
X150146093Y-68400116D01*
X150090153Y-68327213D01*
X149988448Y-68194668D01*
X149988442Y-68194661D01*
X149805338Y-68011557D01*
X149805331Y-68011551D01*
X149599883Y-67853906D01*
X149375619Y-67724427D01*
X149375609Y-67724423D01*
X149136364Y-67625324D01*
X149011297Y-67591813D01*
X148886228Y-67558301D01*
X148886222Y-67558300D01*
X148886217Y-67558299D01*
X148629491Y-67524501D01*
X148629486Y-67524500D01*
X148629481Y-67524500D01*
X148370519Y-67524500D01*
X148370513Y-67524500D01*
X148370508Y-67524501D01*
X148113782Y-67558299D01*
X148113775Y-67558300D01*
X148113772Y-67558301D01*
X148060908Y-67572465D01*
X147863635Y-67625324D01*
X147624390Y-67724423D01*
X147624380Y-67724427D01*
X147400116Y-67853906D01*
X147194668Y-68011551D01*
X147194661Y-68011557D01*
X147011557Y-68194661D01*
X147011551Y-68194668D01*
X146853906Y-68400116D01*
X146724427Y-68624380D01*
X146724423Y-68624390D01*
X146625324Y-68863635D01*
X146558302Y-69113769D01*
X146558299Y-69113782D01*
X146524501Y-69370508D01*
X146524500Y-69370525D01*
X126040768Y-69370525D01*
X126014339Y-69203661D01*
X126014338Y-69203657D01*
X126014338Y-69203656D01*
X125952786Y-69014219D01*
X125894334Y-68899500D01*
X125862353Y-68836734D01*
X125745269Y-68675582D01*
X125604418Y-68534731D01*
X125443266Y-68417647D01*
X125265780Y-68327213D01*
X125076342Y-68265661D01*
X124928782Y-68242290D01*
X124879597Y-68234500D01*
X124680403Y-68234500D01*
X124614822Y-68244887D01*
X124483659Y-68265661D01*
X124483656Y-68265661D01*
X124294219Y-68327213D01*
X124116733Y-68417647D01*
X124024790Y-68484447D01*
X123955582Y-68534731D01*
X123955580Y-68534733D01*
X123955579Y-68534733D01*
X123814733Y-68675579D01*
X123814733Y-68675580D01*
X123814731Y-68675582D01*
X123764447Y-68744790D01*
X123697647Y-68836733D01*
X123607213Y-69014219D01*
X123545661Y-69203656D01*
X123545661Y-69203659D01*
X123514500Y-69400403D01*
X119368741Y-69400403D01*
X119440703Y-69232492D01*
X119466992Y-69193663D01*
X122544114Y-66116543D01*
X122620775Y-66001811D01*
X122641351Y-65952135D01*
X176999500Y-65952135D01*
X176999500Y-78047870D01*
X176999501Y-78047876D01*
X177005908Y-78107483D01*
X177056202Y-78242328D01*
X177056203Y-78242330D01*
X177124767Y-78333919D01*
X177149184Y-78399383D01*
X177149500Y-78408230D01*
X177149500Y-85591769D01*
X177129815Y-85658808D01*
X177124767Y-85666080D01*
X177056204Y-85757668D01*
X177056202Y-85757671D01*
X177005908Y-85892517D01*
X176999501Y-85952116D01*
X176999501Y-85952123D01*
X176999500Y-85952135D01*
X176999500Y-98047870D01*
X176999501Y-98047876D01*
X177005908Y-98107483D01*
X177056202Y-98242328D01*
X177056206Y-98242335D01*
X177142452Y-98357544D01*
X177142455Y-98357547D01*
X177257664Y-98443793D01*
X177257671Y-98443797D01*
X177392517Y-98494091D01*
X177392516Y-98494091D01*
X177399444Y-98494835D01*
X177452127Y-98500500D01*
X189547872Y-98500499D01*
X189607483Y-98494091D01*
X189742331Y-98443796D01*
X189857546Y-98357546D01*
X189943796Y-98242331D01*
X189994091Y-98107483D01*
X190000500Y-98047873D01*
X190000499Y-85952128D01*
X189994091Y-85892517D01*
X189947093Y-85766510D01*
X189943797Y-85757671D01*
X189943795Y-85757668D01*
X189875233Y-85666080D01*
X189850816Y-85600615D01*
X189850500Y-85591769D01*
X189850500Y-78408230D01*
X189870185Y-78341191D01*
X189875233Y-78333919D01*
X189943796Y-78242331D01*
X189994091Y-78107483D01*
X190000500Y-78047873D01*
X190000499Y-65952128D01*
X189994091Y-65892517D01*
X189988755Y-65878211D01*
X189943797Y-65757671D01*
X189943793Y-65757664D01*
X189857547Y-65642455D01*
X189857544Y-65642452D01*
X189742335Y-65556206D01*
X189742328Y-65556202D01*
X189607482Y-65505908D01*
X189607483Y-65505908D01*
X189547883Y-65499501D01*
X189547881Y-65499500D01*
X189547873Y-65499500D01*
X189547864Y-65499500D01*
X177452129Y-65499500D01*
X177452123Y-65499501D01*
X177392516Y-65505908D01*
X177257671Y-65556202D01*
X177257664Y-65556206D01*
X177142455Y-65642452D01*
X177142452Y-65642455D01*
X177056206Y-65757664D01*
X177056202Y-65757671D01*
X177005908Y-65892517D01*
X176999501Y-65952116D01*
X176999501Y-65952123D01*
X176999500Y-65952135D01*
X122641351Y-65952135D01*
X122673580Y-65874328D01*
X122690233Y-65790609D01*
X122700500Y-65738995D01*
X122700500Y-61340313D01*
X184249500Y-61340313D01*
X184249500Y-61352876D01*
X184249500Y-61659687D01*
X184259019Y-61756340D01*
X184280803Y-61977522D01*
X184343109Y-62290754D01*
X184435820Y-62596382D01*
X184558040Y-62891446D01*
X184558042Y-62891451D01*
X184708584Y-63173094D01*
X184708601Y-63173122D01*
X184886012Y-63438638D01*
X184886029Y-63438661D01*
X185088638Y-63685540D01*
X185314459Y-63911361D01*
X185314464Y-63911365D01*
X185314465Y-63911366D01*
X185561344Y-64113975D01*
X185561351Y-64113980D01*
X185561361Y-64113987D01*
X185826877Y-64291398D01*
X185826882Y-64291401D01*
X185826894Y-64291409D01*
X185826903Y-64291413D01*
X185826905Y-64291415D01*
X186108548Y-64441957D01*
X186108550Y-64441957D01*
X186108556Y-64441961D01*
X186403619Y-64564180D01*
X186709240Y-64656889D01*
X187022477Y-64719196D01*
X187340313Y-64750500D01*
X187340316Y-64750500D01*
X187659684Y-64750500D01*
X187659687Y-64750500D01*
X187977523Y-64719196D01*
X188290760Y-64656889D01*
X188596381Y-64564180D01*
X188891444Y-64441961D01*
X189173106Y-64291409D01*
X189438656Y-64113975D01*
X189685535Y-63911366D01*
X189911366Y-63685535D01*
X190113975Y-63438656D01*
X190291409Y-63173106D01*
X190441961Y-62891444D01*
X190564180Y-62596381D01*
X190656889Y-62290760D01*
X190719196Y-61977523D01*
X190750500Y-61659687D01*
X190750500Y-61340313D01*
X190719196Y-61022477D01*
X190656889Y-60709240D01*
X190564180Y-60403619D01*
X190441961Y-60108556D01*
X190392917Y-60016802D01*
X190291415Y-59826905D01*
X190291413Y-59826903D01*
X190291409Y-59826894D01*
X190291398Y-59826877D01*
X190113987Y-59561361D01*
X190113980Y-59561351D01*
X190113975Y-59561344D01*
X189911366Y-59314465D01*
X189911365Y-59314464D01*
X189911361Y-59314459D01*
X189685540Y-59088638D01*
X189438661Y-58886029D01*
X189438638Y-58886012D01*
X189173122Y-58708601D01*
X189173094Y-58708584D01*
X188891451Y-58558042D01*
X188891446Y-58558040D01*
X188596382Y-58435820D01*
X188290754Y-58343109D01*
X187977521Y-58280803D01*
X187977522Y-58280803D01*
X187738141Y-58257227D01*
X187659687Y-58249500D01*
X187340313Y-58249500D01*
X187267822Y-58256639D01*
X187022477Y-58280803D01*
X186709245Y-58343109D01*
X186403617Y-58435820D01*
X186108553Y-58558040D01*
X186108548Y-58558042D01*
X185826905Y-58708584D01*
X185826877Y-58708601D01*
X185561361Y-58886012D01*
X185561338Y-58886029D01*
X185314459Y-59088638D01*
X185088638Y-59314459D01*
X184886029Y-59561338D01*
X184886012Y-59561361D01*
X184708601Y-59826877D01*
X184708584Y-59826905D01*
X184558042Y-60108548D01*
X184558040Y-60108553D01*
X184435820Y-60403617D01*
X184343109Y-60709245D01*
X184280803Y-61022477D01*
X184272413Y-61107669D01*
X184249500Y-61340313D01*
X122700500Y-61340313D01*
X122700500Y-59227606D01*
X122702375Y-59206124D01*
X122703680Y-59198704D01*
X122790115Y-58707336D01*
X122796153Y-58660020D01*
X122796152Y-58660011D01*
X122796181Y-58659138D01*
X122798500Y-58638891D01*
X122800500Y-58628842D01*
X122800500Y-58471158D01*
X122800500Y-58471155D01*
X122800499Y-58471153D01*
X122793471Y-58435820D01*
X122769737Y-58316503D01*
X122741984Y-58249500D01*
X122709397Y-58170827D01*
X122709390Y-58170814D01*
X122621789Y-58039711D01*
X122621786Y-58039707D01*
X122510292Y-57928213D01*
X122510288Y-57928210D01*
X122379185Y-57840609D01*
X122379172Y-57840602D01*
X122233501Y-57780264D01*
X122233489Y-57780261D01*
X122078845Y-57749500D01*
X122078842Y-57749500D01*
X121921158Y-57749500D01*
X121921155Y-57749500D01*
X121766510Y-57780261D01*
X121766498Y-57780264D01*
X121620827Y-57840602D01*
X121620814Y-57840609D01*
X121489711Y-57928210D01*
X121489707Y-57928213D01*
X121378213Y-58039707D01*
X121378210Y-58039711D01*
X121290609Y-58170814D01*
X121290602Y-58170827D01*
X121230264Y-58316498D01*
X121230261Y-58316510D01*
X121199500Y-58471153D01*
X121199500Y-58628842D01*
X121206905Y-58666075D01*
X121209226Y-58686372D01*
X121209884Y-58707337D01*
X121297625Y-59206125D01*
X121299500Y-59227608D01*
X121299500Y-65328480D01*
X121279815Y-65395519D01*
X121263181Y-65416161D01*
X118476341Y-68203000D01*
X118437506Y-68229293D01*
X116663752Y-68989474D01*
X116614906Y-68999500D01*
X116122129Y-68999500D01*
X116122123Y-68999501D01*
X116062516Y-69005908D01*
X115927671Y-69056202D01*
X115927664Y-69056206D01*
X115812455Y-69142452D01*
X115812452Y-69142455D01*
X115726206Y-69257664D01*
X115726202Y-69257671D01*
X115675908Y-69392517D01*
X115669501Y-69452116D01*
X115669500Y-69452135D01*
X113885584Y-69452135D01*
X113712654Y-69279205D01*
X113712649Y-69279201D01*
X113508848Y-69131132D01*
X113508847Y-69131131D01*
X113508845Y-69131130D01*
X113438747Y-69095413D01*
X113284383Y-69016760D01*
X113044785Y-68938910D01*
X112795962Y-68899500D01*
X112544038Y-68899500D01*
X112419626Y-68919205D01*
X112295214Y-68938910D01*
X112055616Y-69016760D01*
X111831151Y-69131132D01*
X111627350Y-69279201D01*
X111627345Y-69279205D01*
X111449205Y-69457345D01*
X111449201Y-69457350D01*
X111301132Y-69661151D01*
X111186760Y-69885616D01*
X111154215Y-69985780D01*
X111108910Y-70125215D01*
X111069500Y-70374038D01*
X109770500Y-70374038D01*
X109731090Y-70125215D01*
X109653241Y-69885621D01*
X109653239Y-69885618D01*
X109653239Y-69885616D01*
X109607750Y-69796339D01*
X109538870Y-69661155D01*
X109437546Y-69521694D01*
X109390798Y-69457350D01*
X109390794Y-69457345D01*
X109212654Y-69279205D01*
X109212649Y-69279201D01*
X109008848Y-69131132D01*
X109008847Y-69131131D01*
X109008845Y-69131130D01*
X108938747Y-69095413D01*
X108784383Y-69016760D01*
X108544785Y-68938910D01*
X108295962Y-68899500D01*
X108044038Y-68899500D01*
X107919626Y-68919205D01*
X107795214Y-68938910D01*
X107555616Y-69016760D01*
X107331151Y-69131132D01*
X107127350Y-69279201D01*
X107127345Y-69279205D01*
X106949205Y-69457345D01*
X106949201Y-69457350D01*
X106801132Y-69661151D01*
X106686760Y-69885616D01*
X106654215Y-69985780D01*
X106608910Y-70125215D01*
X106569500Y-70374038D01*
X104500500Y-70374038D01*
X104500500Y-66421153D01*
X113949500Y-66421153D01*
X113949500Y-66578846D01*
X113980261Y-66733489D01*
X113980264Y-66733501D01*
X114040602Y-66879172D01*
X114040609Y-66879185D01*
X114128210Y-67010288D01*
X114128213Y-67010292D01*
X114239707Y-67121786D01*
X114239711Y-67121789D01*
X114370814Y-67209390D01*
X114370827Y-67209397D01*
X114516498Y-67269735D01*
X114516503Y-67269737D01*
X114671153Y-67300499D01*
X114671156Y-67300500D01*
X114671158Y-67300500D01*
X114828844Y-67300500D01*
X114828845Y-67300499D01*
X114983497Y-67269737D01*
X115129179Y-67209394D01*
X115260289Y-67121789D01*
X115371789Y-67010289D01*
X115459394Y-66879179D01*
X115519737Y-66733497D01*
X115550500Y-66578842D01*
X115550500Y-66421158D01*
X115550500Y-66421155D01*
X115550499Y-66421153D01*
X115519738Y-66266510D01*
X115519737Y-66266503D01*
X115519735Y-66266498D01*
X115459397Y-66120827D01*
X115459390Y-66120814D01*
X115371789Y-65989711D01*
X115371786Y-65989707D01*
X115260292Y-65878213D01*
X115260288Y-65878210D01*
X115129185Y-65790609D01*
X115129172Y-65790602D01*
X114983501Y-65730264D01*
X114983489Y-65730261D01*
X114828845Y-65699500D01*
X114828842Y-65699500D01*
X114671158Y-65699500D01*
X114671155Y-65699500D01*
X114516510Y-65730261D01*
X114516498Y-65730264D01*
X114370827Y-65790602D01*
X114370814Y-65790609D01*
X114239711Y-65878210D01*
X114239707Y-65878213D01*
X114128213Y-65989707D01*
X114128210Y-65989711D01*
X114040609Y-66120814D01*
X114040602Y-66120827D01*
X113980264Y-66266498D01*
X113980261Y-66266510D01*
X113949500Y-66421153D01*
X104500500Y-66421153D01*
X104500500Y-61340313D01*
X105249500Y-61340313D01*
X105249500Y-61352876D01*
X105249500Y-61659687D01*
X105259019Y-61756340D01*
X105280803Y-61977522D01*
X105343109Y-62290754D01*
X105435820Y-62596382D01*
X105558040Y-62891446D01*
X105558042Y-62891451D01*
X105708584Y-63173094D01*
X105708601Y-63173122D01*
X105886012Y-63438638D01*
X105886029Y-63438661D01*
X106088638Y-63685540D01*
X106314459Y-63911361D01*
X106314464Y-63911365D01*
X106314465Y-63911366D01*
X106561344Y-64113975D01*
X106561351Y-64113980D01*
X106561361Y-64113987D01*
X106826877Y-64291398D01*
X106826882Y-64291401D01*
X106826894Y-64291409D01*
X106826903Y-64291413D01*
X106826905Y-64291415D01*
X107108548Y-64441957D01*
X107108550Y-64441957D01*
X107108556Y-64441961D01*
X107403619Y-64564180D01*
X107709240Y-64656889D01*
X108022477Y-64719196D01*
X108340313Y-64750500D01*
X108340316Y-64750500D01*
X108659684Y-64750500D01*
X108659687Y-64750500D01*
X108977523Y-64719196D01*
X109290760Y-64656889D01*
X109596381Y-64564180D01*
X109891444Y-64441961D01*
X110173106Y-64291409D01*
X110438656Y-64113975D01*
X110685535Y-63911366D01*
X110911366Y-63685535D01*
X111113975Y-63438656D01*
X111291409Y-63173106D01*
X111441961Y-62891444D01*
X111564180Y-62596381D01*
X111656889Y-62290760D01*
X111719196Y-61977523D01*
X111750500Y-61659687D01*
X111750500Y-61340313D01*
X111746740Y-61302135D01*
X113349500Y-61302135D01*
X113349500Y-63197870D01*
X113349501Y-63197876D01*
X113355908Y-63257483D01*
X113406202Y-63392328D01*
X113406206Y-63392335D01*
X113492452Y-63507544D01*
X113492455Y-63507547D01*
X113607664Y-63593793D01*
X113607671Y-63593797D01*
X113742517Y-63644091D01*
X113742516Y-63644091D01*
X113749444Y-63644835D01*
X113802127Y-63650500D01*
X115697872Y-63650499D01*
X115757483Y-63644091D01*
X115892331Y-63593796D01*
X116007546Y-63507546D01*
X116093796Y-63392331D01*
X116144091Y-63257483D01*
X116150500Y-63197873D01*
X116150499Y-62139818D01*
X116850000Y-62139818D01*
X116850000Y-62360181D01*
X116884473Y-62577835D01*
X116952567Y-62787410D01*
X117052611Y-62983756D01*
X117098932Y-63047513D01*
X117685387Y-62461058D01*
X117690889Y-62481591D01*
X117769881Y-62618408D01*
X117881592Y-62730119D01*
X118018409Y-62809111D01*
X118038939Y-62814612D01*
X117452485Y-63401065D01*
X117452485Y-63401066D01*
X117516243Y-63447388D01*
X117712589Y-63547432D01*
X117922164Y-63615526D01*
X118139819Y-63650000D01*
X118360181Y-63650000D01*
X118577835Y-63615526D01*
X118787410Y-63547432D01*
X118983760Y-63447386D01*
X119047513Y-63401066D01*
X119047514Y-63401066D01*
X118461059Y-62814612D01*
X118481591Y-62809111D01*
X118618408Y-62730119D01*
X118730119Y-62618408D01*
X118809111Y-62481591D01*
X118814612Y-62461060D01*
X119401066Y-63047514D01*
X119401066Y-63047513D01*
X119447386Y-62983760D01*
X119547432Y-62787410D01*
X119615526Y-62577835D01*
X119650000Y-62360181D01*
X119650000Y-62139818D01*
X119615526Y-61922164D01*
X119547432Y-61712589D01*
X119447388Y-61516243D01*
X119401066Y-61452485D01*
X119401065Y-61452485D01*
X118814612Y-62038939D01*
X118809111Y-62018409D01*
X118730119Y-61881592D01*
X118618408Y-61769881D01*
X118481591Y-61690889D01*
X118461057Y-61685387D01*
X119047513Y-61098932D01*
X118983756Y-61052611D01*
X118787410Y-60952567D01*
X118577835Y-60884473D01*
X118360181Y-60850000D01*
X118139819Y-60850000D01*
X117922164Y-60884473D01*
X117712589Y-60952567D01*
X117516233Y-61052616D01*
X117452485Y-61098931D01*
X117452485Y-61098932D01*
X118038940Y-61685387D01*
X118018409Y-61690889D01*
X117881592Y-61769881D01*
X117769881Y-61881592D01*
X117690889Y-62018409D01*
X117685387Y-62038940D01*
X117098932Y-61452485D01*
X117098931Y-61452485D01*
X117052616Y-61516233D01*
X116952567Y-61712589D01*
X116884473Y-61922164D01*
X116850000Y-62139818D01*
X116150499Y-62139818D01*
X116150499Y-61302128D01*
X116144091Y-61242517D01*
X116093796Y-61107669D01*
X116093795Y-61107668D01*
X116093793Y-61107664D01*
X116007547Y-60992455D01*
X116007544Y-60992452D01*
X115892335Y-60906206D01*
X115892328Y-60906202D01*
X115757482Y-60855908D01*
X115757483Y-60855908D01*
X115697883Y-60849501D01*
X115697881Y-60849500D01*
X115697873Y-60849500D01*
X115697864Y-60849500D01*
X113802129Y-60849500D01*
X113802123Y-60849501D01*
X113742516Y-60855908D01*
X113607671Y-60906202D01*
X113607664Y-60906206D01*
X113492455Y-60992452D01*
X113492452Y-60992455D01*
X113406206Y-61107664D01*
X113406202Y-61107671D01*
X113355908Y-61242517D01*
X113349501Y-61302116D01*
X113349501Y-61302123D01*
X113349500Y-61302135D01*
X111746740Y-61302135D01*
X111719196Y-61022477D01*
X111656889Y-60709240D01*
X111564180Y-60403619D01*
X111441961Y-60108556D01*
X111392917Y-60016802D01*
X111291415Y-59826905D01*
X111291413Y-59826903D01*
X111291409Y-59826894D01*
X111291398Y-59826877D01*
X111113987Y-59561361D01*
X111113980Y-59561351D01*
X111113975Y-59561344D01*
X110911366Y-59314465D01*
X110911365Y-59314464D01*
X110911361Y-59314459D01*
X110685540Y-59088638D01*
X110438661Y-58886029D01*
X110438638Y-58886012D01*
X110173122Y-58708601D01*
X110173094Y-58708584D01*
X109891451Y-58558042D01*
X109891446Y-58558040D01*
X109596382Y-58435820D01*
X109290754Y-58343109D01*
X108977521Y-58280803D01*
X108977522Y-58280803D01*
X108738141Y-58257227D01*
X108659687Y-58249500D01*
X108340313Y-58249500D01*
X108267822Y-58256639D01*
X108022477Y-58280803D01*
X107709245Y-58343109D01*
X107403617Y-58435820D01*
X107108553Y-58558040D01*
X107108548Y-58558042D01*
X106826905Y-58708584D01*
X106826877Y-58708601D01*
X106561361Y-58886012D01*
X106561338Y-58886029D01*
X106314459Y-59088638D01*
X106088638Y-59314459D01*
X105886029Y-59561338D01*
X105886012Y-59561361D01*
X105708601Y-59826877D01*
X105708584Y-59826905D01*
X105558042Y-60108548D01*
X105558040Y-60108553D01*
X105435820Y-60403617D01*
X105343109Y-60709245D01*
X105280803Y-61022477D01*
X105272413Y-61107669D01*
X105249500Y-61340313D01*
X104500500Y-61340313D01*
X104500500Y-57624500D01*
X104520185Y-57557461D01*
X104572989Y-57511706D01*
X104624500Y-57500500D01*
X191375500Y-57500500D01*
X191442539Y-57520185D01*
G37*
%TD.AperFunction*%
%TD*%
%TA.AperFunction,Conductor*%
%TO.N,Net-(Q2-D)*%
G36*
X118741286Y-68657073D02*
G01*
X119012926Y-68928713D01*
X119016353Y-68936986D01*
X119015407Y-68941595D01*
X118174548Y-70903599D01*
X118168139Y-70909853D01*
X118159326Y-70909803D01*
X117173782Y-70502562D01*
X117167446Y-70496238D01*
X116760196Y-69510672D01*
X116760203Y-69501718D01*
X116766400Y-69495451D01*
X118728405Y-68654591D01*
X118737358Y-68654483D01*
X118741286Y-68657073D01*
G37*
%TD.AperFunction*%
%TD*%
%TA.AperFunction,Conductor*%
%TO.N,Net-(Q2-D)*%
G36*
X122283056Y-58606265D02*
G01*
X122290485Y-58611265D01*
X122292259Y-58619760D01*
X122201702Y-59134563D01*
X122196894Y-59142117D01*
X122190179Y-59144236D01*
X121809821Y-59144236D01*
X121801548Y-59140809D01*
X121798298Y-59134563D01*
X121707740Y-58619760D01*
X121709682Y-58611018D01*
X121716942Y-58606265D01*
X121997682Y-58549469D01*
X122002318Y-58549469D01*
X122283056Y-58606265D01*
G37*
%TD.AperFunction*%
%TD*%
%TA.AperFunction,Conductor*%
%TO.N,VCC*%
G36*
X106255985Y-80842667D02*
G01*
X106545644Y-81255986D01*
X106555972Y-81270722D01*
X106557914Y-81279464D01*
X106554664Y-81285710D01*
X106285710Y-81554664D01*
X106277437Y-81558091D01*
X106270722Y-81555972D01*
X105842668Y-81255986D01*
X105837860Y-81248432D01*
X105839633Y-81239938D01*
X105997985Y-81001263D01*
X106001263Y-80997985D01*
X106239938Y-80839633D01*
X106248725Y-80837915D01*
X106255985Y-80842667D01*
G37*
%TD.AperFunction*%
%TD*%
%TA.AperFunction,Conductor*%
%TO.N,VCC*%
G36*
X113938981Y-85709682D02*
G01*
X113943734Y-85716943D01*
X114000530Y-85997680D01*
X114000530Y-86002320D01*
X113943734Y-86283056D01*
X113938734Y-86290485D01*
X113930239Y-86292259D01*
X113415437Y-86201701D01*
X113407883Y-86196893D01*
X113405764Y-86190178D01*
X113405764Y-85809821D01*
X113409191Y-85801548D01*
X113415435Y-85798298D01*
X113930239Y-85707740D01*
X113938981Y-85709682D01*
G37*
%TD.AperFunction*%
%TD*%
D19*
X114750000Y-66500000D03*
X161750000Y-101500000D03*
X138500000Y-60750000D03*
X118500000Y-93900000D03*
X115080000Y-82200000D03*
X105500000Y-83000000D03*
X122000000Y-58550000D03*
X106000000Y-81000000D03*
X114000000Y-86000000D03*
D20*
X117170000Y-70500000D03*
X112670000Y-70500000D03*
X108170000Y-70500000D03*
X108170000Y-77000000D03*
X112670000Y-77000000D03*
X117170000Y-77000000D03*
D21*
X183500000Y-72000000D03*
X183500000Y-92000000D03*
D20*
X114750000Y-62250000D03*
X118250000Y-62250000D03*
X148500000Y-93500000D03*
X148500000Y-69500000D03*
X124780000Y-69500000D03*
X124780000Y-82200000D03*
M02*
