%TF.GenerationSoftware,KiCad,Pcbnew,9.0.6-9.0.6~ubuntu24.04.1*%
%TF.CreationDate,2025-11-29T12:56:03-05:00*%
%TF.ProjectId,CardPCB,43617264-5043-4422-9e6b-696361645f70,rev?*%
%TF.SameCoordinates,Original*%
%TF.FileFunction,Copper,L1,Top*%
%TF.FilePolarity,Positive*%
%FSLAX46Y46*%
G04 Gerber Fmt 4.6, Leading zero omitted, Abs format (unit mm)*
G04 Created by KiCad (PCBNEW 9.0.6-9.0.6~ubuntu24.04.1) date 2025-11-29 12:56:03*
%MOMM*%
%LPD*%
G01*
G04 APERTURE LIST*
G04 Aperture macros list*
%AMRoundRect*
0 Rectangle with rounded corners*
0 $1 Rounding radius*
0 $2 $3 $4 $5 $6 $7 $8 $9 X,Y pos of 4 corners*
0 Add a 4 corners polygon primitive as box body*
4,1,4,$2,$3,$4,$5,$6,$7,$8,$9,$2,$3,0*
0 Add four circle primitives for the rounded corners*
1,1,$1+$1,$2,$3*
1,1,$1+$1,$4,$5*
1,1,$1+$1,$6,$7*
1,1,$1+$1,$8,$9*
0 Add four rect primitives between the rounded corners*
20,1,$1+$1,$2,$3,$4,$5,0*
20,1,$1+$1,$4,$5,$6,$7,0*
20,1,$1+$1,$6,$7,$8,$9,0*
20,1,$1+$1,$8,$9,$2,$3,0*%
G04 Aperture macros list end*
%TA.AperFunction,SMDPad,CuDef*%
%ADD10RoundRect,0.162500X-0.447500X-0.162500X0.447500X-0.162500X0.447500X0.162500X-0.447500X0.162500X0*%
%TD*%
%TA.AperFunction,SMDPad,CuDef*%
%ADD11R,1.200000X1.200000*%
%TD*%
%TA.AperFunction,SMDPad,CuDef*%
%ADD12R,1.500000X1.600000*%
%TD*%
%TA.AperFunction,SMDPad,CuDef*%
%ADD13RoundRect,0.250000X0.625000X-0.400000X0.625000X0.400000X-0.625000X0.400000X-0.625000X-0.400000X0*%
%TD*%
%TA.AperFunction,SMDPad,CuDef*%
%ADD14RoundRect,0.250000X-0.475000X0.250000X-0.475000X-0.250000X0.475000X-0.250000X0.475000X0.250000X0*%
%TD*%
%TA.AperFunction,SMDPad,CuDef*%
%ADD15RoundRect,0.250000X0.450000X-0.350000X0.450000X0.350000X-0.450000X0.350000X-0.450000X-0.350000X0*%
%TD*%
%TA.AperFunction,SMDPad,CuDef*%
%ADD16RoundRect,0.162500X0.837500X0.162500X-0.837500X0.162500X-0.837500X-0.162500X0.837500X-0.162500X0*%
%TD*%
%TA.AperFunction,ComponentPad*%
%ADD17R,2.000000X2.000000*%
%TD*%
%TA.AperFunction,ComponentPad*%
%ADD18C,2.200000*%
%TD*%
%TA.AperFunction,ComponentPad*%
%ADD19R,12.000000X12.000000*%
%TD*%
%TA.AperFunction,SMDPad,CuDef*%
%ADD20RoundRect,0.150000X-0.150000X0.825000X-0.150000X-0.825000X0.150000X-0.825000X0.150000X0.825000X0*%
%TD*%
%TA.AperFunction,SMDPad,CuDef*%
%ADD21RoundRect,0.225000X-0.375000X0.225000X-0.375000X-0.225000X0.375000X-0.225000X0.375000X0.225000X0*%
%TD*%
%TA.AperFunction,SMDPad,CuDef*%
%ADD22RoundRect,0.250000X0.475000X-0.250000X0.475000X0.250000X-0.475000X0.250000X-0.475000X-0.250000X0*%
%TD*%
%TA.AperFunction,SMDPad,CuDef*%
%ADD23RoundRect,0.250000X-1.500000X-0.900000X1.500000X-0.900000X1.500000X0.900000X-1.500000X0.900000X0*%
%TD*%
%TA.AperFunction,SMDPad,CuDef*%
%ADD24RoundRect,0.250000X0.350000X0.450000X-0.350000X0.450000X-0.350000X-0.450000X0.350000X-0.450000X0*%
%TD*%
%TA.AperFunction,SMDPad,CuDef*%
%ADD25R,0.500000X4.780000*%
%TD*%
%TA.AperFunction,SMDPad,CuDef*%
%ADD26R,2.780000X4.780000*%
%TD*%
%TA.AperFunction,ComponentPad*%
%ADD27R,1.800000X1.800000*%
%TD*%
%TA.AperFunction,ComponentPad*%
%ADD28C,1.800000*%
%TD*%
%TA.AperFunction,SMDPad,CuDef*%
%ADD29RoundRect,0.250000X-0.625000X0.400000X-0.625000X-0.400000X0.625000X-0.400000X0.625000X0.400000X0*%
%TD*%
%TA.AperFunction,ComponentPad*%
%ADD30C,1.530000*%
%TD*%
%TA.AperFunction,ViaPad*%
%ADD31C,0.600000*%
%TD*%
%TA.AperFunction,Conductor*%
%ADD32C,0.400000*%
%TD*%
%TA.AperFunction,Conductor*%
%ADD33C,0.200000*%
%TD*%
%TA.AperFunction,Conductor*%
%ADD34C,2.800000*%
%TD*%
%ADD35C,0.300000*%
%ADD36C,0.350000*%
%ADD37C,0.100000*%
G04 APERTURE END LIST*
D10*
%TO.P,Q2,1,D*%
%TO.N,Net-(Q2-D)*%
X123190000Y-58550000D03*
%TO.P,Q2,2,G*%
%TO.N,Net-(D2-A)*%
X123190000Y-60450000D03*
%TO.P,Q2,3,S*%
%TO.N,VCC*%
X125810000Y-59500000D03*
%TD*%
D11*
%TO.P,RV1,1,1*%
%TO.N,Net-(D4-A)*%
X110000000Y-91000000D03*
D12*
%TO.P,RV1,2,2*%
%TO.N,Net-(U1-THR)*%
X113250000Y-92000000D03*
D11*
%TO.P,RV1,3,3*%
%TO.N,Net-(D3-K)*%
X110000000Y-93000000D03*
%TD*%
D13*
%TO.P,R3,1*%
%TO.N,Net-(Q1-G)*%
X159500000Y-105050000D03*
%TO.P,R3,2*%
%TO.N,-BATT*%
X159500000Y-101950000D03*
%TD*%
D14*
%TO.P,C1,1*%
%TO.N,Net-(U1-THR)*%
X117000000Y-92000000D03*
%TO.P,C1,2*%
%TO.N,-BATT*%
X117000000Y-93900000D03*
%TD*%
D15*
%TO.P,R1,1*%
%TO.N,Net-(D2-A)*%
X136500000Y-61000000D03*
%TO.P,R1,2*%
%TO.N,-BATT*%
X136500000Y-59000000D03*
%TD*%
D16*
%TO.P,Q1,1,G*%
%TO.N,Net-(Q1-G)*%
X167710000Y-104950000D03*
%TO.P,Q1,2,D*%
%TO.N,Net-(Q1-D)*%
X167710000Y-103050000D03*
%TO.P,Q1,3,S*%
%TO.N,-BATT*%
X164290000Y-104000000D03*
%TD*%
D17*
%TO.P,SW1,1,A*%
%TO.N,Net-(Q2-D)*%
X117170000Y-70500000D03*
D18*
%TO.P,SW1,2,B*%
%TO.N,+BATT*%
X112670000Y-70500000D03*
%TO.P,SW1,3,C*%
%TO.N,unconnected-(SW1A-C-Pad3)*%
X108170000Y-70500000D03*
%TO.P,SW1,4,A*%
%TO.N,unconnected-(SW1B-A-Pad4)*%
X108170000Y-77000000D03*
%TO.P,SW1,5,B*%
%TO.N,unconnected-(SW1B-B-Pad5)*%
X112670000Y-77000000D03*
%TO.P,SW1,6,C*%
%TO.N,unconnected-(SW1B-C-Pad6)*%
X117170000Y-77000000D03*
%TD*%
D19*
%TO.P,H1,1,1*%
%TO.N,Net-(D6-PAD)*%
X183500000Y-72000000D03*
%TD*%
%TO.P,H2,1,1*%
%TO.N,Net-(D6-PAD)*%
X183500000Y-92000000D03*
%TD*%
D20*
%TO.P,U1,1,GND*%
%TO.N,-BATT*%
X112905000Y-80025000D03*
%TO.P,U1,2,TR*%
%TO.N,Net-(U1-THR)*%
X111635000Y-80025000D03*
%TO.P,U1,3,Q*%
%TO.N,unconnected-(U1-Q-Pad3)*%
X110365000Y-80025000D03*
%TO.P,U1,4,R*%
%TO.N,VCC*%
X109095000Y-80025000D03*
%TO.P,U1,5,CV*%
%TO.N,Net-(U1-CV)*%
X109095000Y-84975000D03*
%TO.P,U1,6,THR*%
%TO.N,Net-(U1-THR)*%
X110365000Y-84975000D03*
%TO.P,U1,7,DIS*%
%TO.N,Net-(D3-A)*%
X111635000Y-84975000D03*
%TO.P,U1,8,VCC*%
%TO.N,VCC*%
X112905000Y-84975000D03*
%TD*%
D21*
%TO.P,D2,1,K*%
%TO.N,VCC*%
X131000000Y-58350000D03*
%TO.P,D2,2,A*%
%TO.N,Net-(D2-A)*%
X131000000Y-61650000D03*
%TD*%
D22*
%TO.P,C2,1*%
%TO.N,Net-(U1-CV)*%
X107000000Y-85000000D03*
%TO.P,C2,2*%
%TO.N,-BATT*%
X107000000Y-83100000D03*
%TD*%
D23*
%TO.P,D4,1,K*%
%TO.N,Net-(D3-A)*%
X142800000Y-103500000D03*
%TO.P,D4,2,A*%
%TO.N,Net-(D4-A)*%
X148200000Y-103500000D03*
%TD*%
D24*
%TO.P,R2,1*%
%TO.N,VCC*%
X113500000Y-87500000D03*
%TO.P,R2,2*%
%TO.N,Net-(D3-A)*%
X111500000Y-87500000D03*
%TD*%
D25*
%TO.P,D6,1,K*%
%TO.N,Net-(D6-K)*%
X182320000Y-81925000D03*
%TO.P,D6,2,A*%
%TO.N,VCC*%
X186600000Y-81925000D03*
D26*
%TO.P,D6,3,PAD*%
%TO.N,Net-(D6-PAD)*%
X184460000Y-81925000D03*
%TD*%
D27*
%TO.P,BT2,1,+*%
%TO.N,+BATT*%
X114750000Y-62250000D03*
D28*
%TO.P,BT2,2,-*%
%TO.N,-BATT*%
X118250000Y-62250000D03*
%TD*%
D29*
%TO.P,R4,1*%
%TO.N,Net-(D6-K)*%
X178500000Y-80350000D03*
%TO.P,R4,2*%
%TO.N,Net-(Q1-D)*%
X178500000Y-83450000D03*
%TD*%
D30*
%TO.P,BT1,1,+*%
%TO.N,+BATT*%
X124780000Y-69500000D03*
%TO.P,BT1,2,-*%
%TO.N,-BATT*%
X124780000Y-82200000D03*
%TD*%
D23*
%TO.P,D3,1,K*%
%TO.N,Net-(D3-K)*%
X130300000Y-103500000D03*
%TO.P,D3,2,A*%
%TO.N,Net-(D3-A)*%
X135700000Y-103500000D03*
%TD*%
D31*
%TO.N,+BATT*%
X114750000Y-66500000D03*
%TO.N,-BATT*%
X161750000Y-101500000D03*
X138500000Y-60750000D03*
X118500000Y-93900000D03*
X115080000Y-82200000D03*
X105500000Y-83000000D03*
%TO.N,Net-(Q2-D)*%
X122000000Y-58550000D03*
%TO.N,VCC*%
X106000000Y-81000000D03*
X114000000Y-86000000D03*
%TD*%
D32*
%TO.N,+BATT*%
X114750000Y-62250000D02*
X114750000Y-68420000D01*
X114750000Y-68420000D02*
X112670000Y-70500000D01*
X114750000Y-62250000D02*
X114750000Y-66500000D01*
X114750000Y-66500000D02*
X121780000Y-66500000D01*
X121780000Y-66500000D02*
X124780000Y-69500000D01*
%TO.N,VCC*%
X106000000Y-81000000D02*
X106000000Y-68880452D01*
X106000000Y-68880452D02*
X112500000Y-62380452D01*
X112750000Y-59500000D02*
X125810000Y-59500000D01*
X112500000Y-62380452D02*
X112500000Y-59750000D01*
X112500000Y-59750000D02*
X112750000Y-59500000D01*
X109095000Y-80025000D02*
X108120000Y-81000000D01*
X108120000Y-81000000D02*
X106000000Y-81000000D01*
X186600000Y-81925000D02*
X188075000Y-81925000D01*
X188075000Y-81925000D02*
X191000000Y-79000000D01*
X190000000Y-65000000D02*
X152899000Y-65000000D01*
X191000000Y-79000000D02*
X191000000Y-66000000D01*
X191000000Y-66000000D02*
X190000000Y-65000000D01*
X145649000Y-57750000D02*
X131600000Y-57750000D01*
X152899000Y-65000000D02*
X145649000Y-57750000D01*
X131600000Y-57750000D02*
X131000000Y-58350000D01*
D33*
%TO.N,-BATT*%
X105500000Y-83000000D02*
X106900000Y-83000000D01*
X106900000Y-83000000D02*
X107000000Y-83100000D01*
X136500000Y-59000000D02*
X136750000Y-59000000D01*
X136750000Y-59000000D02*
X138500000Y-60750000D01*
X164290000Y-104000000D02*
X161790000Y-101500000D01*
X161790000Y-101500000D02*
X161750000Y-101500000D01*
X164290000Y-104000000D02*
X164250000Y-104000000D01*
X161750000Y-101500000D02*
X159950000Y-101500000D01*
X118500000Y-93900000D02*
X117000000Y-93900000D01*
X112905000Y-80025000D02*
X115080000Y-82200000D01*
X159950000Y-101500000D02*
X159500000Y-101950000D01*
%TO.N,Net-(U1-THR)*%
X117000000Y-86000000D02*
X114699000Y-83699000D01*
X117000000Y-92000000D02*
X117000000Y-86000000D01*
X117000000Y-92000000D02*
X113250000Y-92000000D01*
X110365000Y-84628032D02*
X110365000Y-84975000D01*
X111635000Y-80025000D02*
X111635000Y-80999999D01*
X111635000Y-80999999D02*
X110365000Y-82269999D01*
X110365000Y-82269999D02*
X110365000Y-84975000D01*
X111294032Y-83699000D02*
X110365000Y-84628032D01*
X114699000Y-83699000D02*
X111294032Y-83699000D01*
%TO.N,Net-(U1-CV)*%
X109070000Y-85000000D02*
X109095000Y-84975000D01*
X107000000Y-85000000D02*
X109070000Y-85000000D01*
D32*
%TO.N,Net-(Q2-D)*%
X123190000Y-58550000D02*
X122000000Y-58550000D01*
D33*
%TO.N,Net-(D2-A)*%
X123190000Y-60450000D02*
X129800000Y-60450000D01*
X129800000Y-60450000D02*
X131000000Y-61650000D01*
X135850000Y-61650000D02*
X136500000Y-61000000D01*
X131000000Y-61650000D02*
X135850000Y-61650000D01*
D32*
%TO.N,VCC*%
X125810000Y-59500000D02*
X129850000Y-59500000D01*
X112905000Y-84628032D02*
X112905000Y-84975000D01*
X129850000Y-59500000D02*
X131000000Y-58350000D01*
X109095000Y-80025000D02*
X109095000Y-80818032D01*
X113500000Y-87500000D02*
X113500000Y-86500000D01*
X113500000Y-86500000D02*
X114000000Y-86000000D01*
X112975000Y-84975000D02*
X114000000Y-86000000D01*
X112905000Y-84975000D02*
X112975000Y-84975000D01*
D33*
%TO.N,Net-(D3-K)*%
X120500000Y-103500000D02*
X110000000Y-93000000D01*
X130300000Y-103500000D02*
X120500000Y-103500000D01*
%TO.N,Net-(D3-A)*%
X135700000Y-103500000D02*
X134249000Y-104951000D01*
X108000000Y-93500000D02*
X108000000Y-90500000D01*
X111635000Y-84975000D02*
X111635000Y-87365000D01*
X135700000Y-103500000D02*
X142800000Y-103500000D01*
X111635000Y-87365000D02*
X111500000Y-87500000D01*
X111000000Y-87500000D02*
X111500000Y-87500000D01*
X119451000Y-104951000D02*
X108000000Y-93500000D01*
X108000000Y-90500000D02*
X111000000Y-87500000D01*
X134249000Y-104951000D02*
X119451000Y-104951000D01*
%TO.N,Net-(D4-A)*%
X146200000Y-101500000D02*
X120500000Y-101500000D01*
X120500000Y-101500000D02*
X110000000Y-91000000D01*
X148200000Y-103500000D02*
X146200000Y-101500000D01*
%TO.N,Net-(D6-K)*%
X180745000Y-80350000D02*
X182320000Y-81925000D01*
X178500000Y-80350000D02*
X180745000Y-80350000D01*
%TO.N,Net-(Q1-D)*%
X173050000Y-83450000D02*
X178500000Y-83450000D01*
X167710000Y-88790000D02*
X173050000Y-83450000D01*
X167710000Y-103050000D02*
X167710000Y-88790000D01*
%TO.N,Net-(Q1-G)*%
X167610000Y-105050000D02*
X167710000Y-104950000D01*
X159500000Y-105050000D02*
X167610000Y-105050000D01*
D34*
%TO.N,Net-(D6-PAD)*%
X184460000Y-72960000D02*
X183500000Y-72000000D01*
X184460000Y-81925000D02*
X184460000Y-91040000D01*
X184460000Y-81925000D02*
X184460000Y-72960000D01*
X184460000Y-91040000D02*
X183500000Y-92000000D01*
%TD*%
%TA.AperFunction,Conductor*%
%TO.N,+BATT*%
G36*
X114758269Y-62257278D02*
G01*
X114758278Y-62257287D01*
X115642704Y-63142696D01*
X115646126Y-63150971D01*
X115643661Y-63158148D01*
X114953513Y-64045483D01*
X114945729Y-64049910D01*
X114944278Y-64050000D01*
X114555722Y-64050000D01*
X114547449Y-64046573D01*
X114546487Y-64045483D01*
X113856338Y-63158148D01*
X113853963Y-63149514D01*
X113857294Y-63142697D01*
X114741722Y-62257286D01*
X114749994Y-62253856D01*
X114758269Y-62257278D01*
G37*
%TD.AperFunction*%
%TD*%
%TA.AperFunction,Conductor*%
%TO.N,+BATT*%
G36*
X114000579Y-68891527D02*
G01*
X114003730Y-68893773D01*
X114276226Y-69166269D01*
X114279653Y-69174542D01*
X114279013Y-69178359D01*
X113752191Y-70704956D01*
X113746253Y-70711658D01*
X113738857Y-70712616D01*
X112676974Y-70502228D01*
X112669525Y-70497259D01*
X112667771Y-70493025D01*
X112457383Y-69431142D01*
X112459137Y-69422360D01*
X112465041Y-69417809D01*
X113991642Y-68890986D01*
X114000579Y-68891527D01*
G37*
%TD.AperFunction*%
%TD*%
%TA.AperFunction,Conductor*%
%TO.N,+BATT*%
G36*
X114758269Y-62257278D02*
G01*
X114758278Y-62257287D01*
X115642704Y-63142696D01*
X115646126Y-63150971D01*
X115643661Y-63158148D01*
X114953513Y-64045483D01*
X114945729Y-64049910D01*
X114944278Y-64050000D01*
X114555722Y-64050000D01*
X114547449Y-64046573D01*
X114546487Y-64045483D01*
X113856338Y-63158148D01*
X113853963Y-63149514D01*
X113857294Y-63142697D01*
X114741722Y-62257286D01*
X114749994Y-62253856D01*
X114758269Y-62257278D01*
G37*
%TD.AperFunction*%
%TD*%
%TA.AperFunction,Conductor*%
%TO.N,+BATT*%
G36*
X123857209Y-68290192D02*
G01*
X124531467Y-68577211D01*
X125192039Y-68858404D01*
X125198309Y-68864797D01*
X125198221Y-68873752D01*
X125197193Y-68875657D01*
X124782006Y-69498757D01*
X124778757Y-69502006D01*
X124155657Y-69917193D01*
X124146872Y-69918928D01*
X124139432Y-69913944D01*
X124138404Y-69912039D01*
X123570193Y-68577211D01*
X123570105Y-68568256D01*
X123572683Y-68564357D01*
X123844356Y-68292684D01*
X123852628Y-68289258D01*
X123857209Y-68290192D01*
G37*
%TD.AperFunction*%
%TD*%
%TA.AperFunction,Conductor*%
%TO.N,VCC*%
G36*
X106198452Y-80409191D02*
G01*
X106201702Y-80415437D01*
X106292259Y-80930239D01*
X106290317Y-80938981D01*
X106283056Y-80943734D01*
X106002320Y-81000530D01*
X105997680Y-81000530D01*
X105716943Y-80943734D01*
X105709514Y-80938734D01*
X105707740Y-80930239D01*
X105798298Y-80415437D01*
X105803106Y-80407883D01*
X105809821Y-80405764D01*
X106190179Y-80405764D01*
X106198452Y-80409191D01*
G37*
%TD.AperFunction*%
%TD*%
%TA.AperFunction,Conductor*%
%TO.N,VCC*%
G36*
X125304351Y-59189845D02*
G01*
X125304550Y-59189963D01*
X125725160Y-59447451D01*
X125794699Y-59490021D01*
X125799965Y-59497264D01*
X125798569Y-59506109D01*
X125794699Y-59509979D01*
X125304580Y-59810018D01*
X125295735Y-59811414D01*
X125295489Y-59811352D01*
X125111932Y-59762743D01*
X124883705Y-59702305D01*
X124876585Y-59696875D01*
X124875000Y-59690995D01*
X124875000Y-59309004D01*
X124878427Y-59300731D01*
X124883702Y-59297695D01*
X125295478Y-59188650D01*
X125304351Y-59189845D01*
G37*
%TD.AperFunction*%
%TD*%
%TA.AperFunction,Conductor*%
%TO.N,VCC*%
G36*
X108803576Y-79904259D02*
G01*
X109084849Y-80019831D01*
X109091199Y-80026145D01*
X109091224Y-80035100D01*
X109091209Y-80035136D01*
X108801705Y-80733098D01*
X108795370Y-80739427D01*
X108786415Y-80739422D01*
X108782625Y-80736888D01*
X108448455Y-80402718D01*
X108445028Y-80394445D01*
X108447206Y-80387646D01*
X108789610Y-79908280D01*
X108797207Y-79903541D01*
X108803576Y-79904259D01*
G37*
%TD.AperFunction*%
%TD*%
%TA.AperFunction,Conductor*%
%TO.N,VCC*%
G36*
X106584563Y-80798298D02*
G01*
X106592117Y-80803106D01*
X106594236Y-80809821D01*
X106594236Y-81190178D01*
X106590809Y-81198451D01*
X106584563Y-81201701D01*
X106069760Y-81292259D01*
X106061018Y-81290317D01*
X106056265Y-81283056D01*
X106039462Y-81200000D01*
X105999469Y-81002318D01*
X105999469Y-80997680D01*
X106037475Y-80809821D01*
X106056265Y-80716942D01*
X106061265Y-80709514D01*
X106069760Y-80707740D01*
X106584563Y-80798298D01*
G37*
%TD.AperFunction*%
%TD*%
%TA.AperFunction,Conductor*%
%TO.N,VCC*%
G36*
X186856124Y-81676224D02*
G01*
X187090595Y-81723119D01*
X187098035Y-81728102D01*
X187100000Y-81734592D01*
X187100000Y-82115408D01*
X187096573Y-82123681D01*
X187090595Y-82126881D01*
X186856126Y-82173774D01*
X186847341Y-82172036D01*
X186845574Y-82170591D01*
X186607323Y-81933290D01*
X186603880Y-81925023D01*
X186607290Y-81916743D01*
X186607323Y-81916710D01*
X186845574Y-81679407D01*
X186853854Y-81675998D01*
X186856124Y-81676224D01*
G37*
%TD.AperFunction*%
%TD*%
%TA.AperFunction,Conductor*%
%TO.N,VCC*%
G36*
X131813539Y-57556077D02*
G01*
X131819574Y-57562692D01*
X131820271Y-57566670D01*
X131820271Y-57947615D01*
X131819339Y-57952192D01*
X131603712Y-58459487D01*
X131597322Y-58465760D01*
X131590686Y-58466390D01*
X131005735Y-58351324D01*
X130998279Y-58346365D01*
X130996870Y-58343474D01*
X130869164Y-57952192D01*
X130855647Y-57910776D01*
X130856338Y-57901850D01*
X130862791Y-57896145D01*
X131804595Y-57555667D01*
X131813539Y-57556077D01*
G37*
%TD.AperFunction*%
%TD*%
%TA.AperFunction,Conductor*%
%TO.N,-BATT*%
G36*
X106434848Y-82623674D02*
G01*
X106666288Y-82818393D01*
X106988956Y-83089867D01*
X106993081Y-83097815D01*
X106990377Y-83106351D01*
X106987826Y-83108612D01*
X106355060Y-83522306D01*
X106346261Y-83523965D01*
X106341671Y-83521898D01*
X105779713Y-83103508D01*
X105775123Y-83095818D01*
X105775000Y-83094123D01*
X105775000Y-82907709D01*
X105778427Y-82899436D01*
X105782084Y-82896958D01*
X106422701Y-82621875D01*
X106431654Y-82621761D01*
X106434848Y-82623674D01*
G37*
%TD.AperFunction*%
%TD*%
%TA.AperFunction,Conductor*%
%TO.N,-BATT*%
G36*
X105571282Y-82710389D02*
G01*
X106086525Y-82897204D01*
X106093134Y-82903244D01*
X106094236Y-82908202D01*
X106094236Y-83091797D01*
X106090809Y-83100070D01*
X106086524Y-83102796D01*
X105571290Y-83289608D01*
X105562344Y-83289207D01*
X105556303Y-83282597D01*
X105555837Y-83280939D01*
X105499469Y-83002318D01*
X105499469Y-82997680D01*
X105555835Y-82719067D01*
X105560834Y-82711641D01*
X105569622Y-82709922D01*
X105571282Y-82710389D01*
G37*
%TD.AperFunction*%
%TD*%
%TA.AperFunction,Conductor*%
%TO.N,-BATT*%
G36*
X137199254Y-58786877D02*
G01*
X137204350Y-58792189D01*
X137674827Y-59779500D01*
X137675292Y-59788443D01*
X137672538Y-59792806D01*
X137541720Y-59923624D01*
X137533447Y-59927051D01*
X137530456Y-59926662D01*
X136307160Y-59603205D01*
X136300038Y-59597777D01*
X136298840Y-59588903D01*
X136299065Y-59588155D01*
X136497371Y-59004944D01*
X136503279Y-58998216D01*
X136504992Y-58997534D01*
X137190339Y-58786042D01*
X137199254Y-58786877D01*
G37*
%TD.AperFunction*%
%TD*%
%TA.AperFunction,Conductor*%
%TO.N,-BATT*%
G36*
X163813391Y-103378118D02*
G01*
X164097063Y-103515901D01*
X164414729Y-103670196D01*
X164420673Y-103676893D01*
X164420438Y-103685169D01*
X164295169Y-103989853D01*
X164288854Y-103996202D01*
X164279900Y-103996224D01*
X164111842Y-103926524D01*
X163521547Y-103681705D01*
X163515218Y-103675371D01*
X163515222Y-103666416D01*
X163517754Y-103662627D01*
X163664480Y-103515901D01*
X163800011Y-103380369D01*
X163808283Y-103376943D01*
X163813391Y-103378118D01*
G37*
%TD.AperFunction*%
%TD*%
%TA.AperFunction,Conductor*%
%TO.N,-BATT*%
G36*
X160130717Y-101300642D02*
G01*
X161004660Y-101398832D01*
X161012499Y-101403161D01*
X161015054Y-101410459D01*
X161015054Y-101595749D01*
X161012325Y-101603259D01*
X160377031Y-102362165D01*
X160369093Y-102366309D01*
X160362992Y-102365201D01*
X159513582Y-101957007D01*
X159507610Y-101950334D01*
X159508104Y-101941393D01*
X159510218Y-101938351D01*
X160121000Y-101304152D01*
X160129205Y-101300572D01*
X160130717Y-101300642D01*
G37*
%TD.AperFunction*%
%TD*%
%TA.AperFunction,Conductor*%
%TO.N,-BATT*%
G36*
X117577785Y-93423172D02*
G01*
X118219187Y-93796615D01*
X118224612Y-93803739D01*
X118225000Y-93806726D01*
X118225000Y-93993273D01*
X118221573Y-94001546D01*
X118219187Y-94003384D01*
X117577788Y-94376826D01*
X117568914Y-94378027D01*
X117564369Y-94375668D01*
X117009641Y-93908953D01*
X117005516Y-93901004D01*
X117008220Y-93892468D01*
X117009641Y-93891047D01*
X117564371Y-93424330D01*
X117572905Y-93421627D01*
X117577785Y-93423172D01*
G37*
%TD.AperFunction*%
%TD*%
%TA.AperFunction,Conductor*%
%TO.N,-BATT*%
G36*
X113203903Y-79904891D02*
G01*
X113209859Y-79910455D01*
X113267722Y-80026181D01*
X113484071Y-80458878D01*
X113484706Y-80467810D01*
X113481879Y-80472383D01*
X113346421Y-80607842D01*
X113217374Y-80736888D01*
X113209101Y-80740315D01*
X113200828Y-80736888D01*
X113198295Y-80733100D01*
X112908789Y-80035134D01*
X112908785Y-80026181D01*
X112915112Y-80019847D01*
X113194948Y-79904866D01*
X113203903Y-79904891D01*
G37*
%TD.AperFunction*%
%TD*%
%TA.AperFunction,Conductor*%
%TO.N,-BATT*%
G36*
X114737949Y-81712576D02*
G01*
X115048713Y-81857953D01*
X115234373Y-81944806D01*
X115240414Y-81951416D01*
X115240013Y-81960362D01*
X115239164Y-81961872D01*
X115082015Y-82198734D01*
X115078734Y-82202015D01*
X114841872Y-82359164D01*
X114833084Y-82360883D01*
X114825655Y-82355883D01*
X114824806Y-82354373D01*
X114751997Y-82198734D01*
X114592576Y-81857951D01*
X114592176Y-81849007D01*
X114594900Y-81844724D01*
X114724723Y-81714901D01*
X114732995Y-81711475D01*
X114737949Y-81712576D01*
G37*
%TD.AperFunction*%
%TD*%
%TA.AperFunction,Conductor*%
%TO.N,Net-(U1-THR)*%
G36*
X117102615Y-91003427D02*
G01*
X117103513Y-91004435D01*
X117493502Y-91496769D01*
X117495953Y-91505382D01*
X117492571Y-91512340D01*
X117008240Y-91992825D01*
X116999953Y-91996219D01*
X116991760Y-91992825D01*
X116507428Y-91512340D01*
X116503968Y-91504081D01*
X116506496Y-91496770D01*
X116896487Y-91004435D01*
X116904310Y-91000078D01*
X116905658Y-91000000D01*
X117094342Y-91000000D01*
X117102615Y-91003427D01*
G37*
%TD.AperFunction*%
%TD*%
%TA.AperFunction,Conductor*%
%TO.N,Net-(U1-THR)*%
G36*
X116435630Y-91524331D02*
G01*
X116990358Y-91991047D01*
X116994483Y-91998996D01*
X116991779Y-92007532D01*
X116990358Y-92008953D01*
X116435630Y-92475668D01*
X116427094Y-92478372D01*
X116422212Y-92476826D01*
X116176045Y-92333500D01*
X115780813Y-92103384D01*
X115775388Y-92096260D01*
X115775000Y-92093273D01*
X115775000Y-91906726D01*
X115778427Y-91898453D01*
X115780810Y-91896617D01*
X116422213Y-91523172D01*
X116431085Y-91521972D01*
X116435630Y-91524331D01*
G37*
%TD.AperFunction*%
%TD*%
%TA.AperFunction,Conductor*%
%TO.N,Net-(U1-THR)*%
G36*
X114008227Y-91257130D02*
G01*
X114745963Y-91896501D01*
X114749970Y-91904509D01*
X114750000Y-91905343D01*
X114750000Y-92094656D01*
X114746573Y-92102929D01*
X114745963Y-92103498D01*
X114008227Y-92742869D01*
X113999730Y-92745697D01*
X113992296Y-92742306D01*
X113257290Y-92008279D01*
X113253858Y-92000008D01*
X113257279Y-91991732D01*
X113257290Y-91991721D01*
X113352637Y-91896501D01*
X113992297Y-91257692D01*
X114000572Y-91254272D01*
X114008227Y-91257130D01*
G37*
%TD.AperFunction*%
%TD*%
%TA.AperFunction,Conductor*%
%TO.N,Net-(U1-THR)*%
G36*
X111641003Y-80068118D02*
G01*
X111641996Y-80071516D01*
X111764911Y-80994409D01*
X111762606Y-81003063D01*
X111761745Y-81004065D01*
X111501847Y-81274244D01*
X111493642Y-81277831D01*
X111485304Y-81274565D01*
X111485142Y-81274406D01*
X111355302Y-81144566D01*
X111351895Y-81136982D01*
X111335142Y-80852415D01*
X111335827Y-80847727D01*
X111619405Y-80069055D01*
X111625455Y-80062456D01*
X111634402Y-80062067D01*
X111641003Y-80068118D01*
G37*
%TD.AperFunction*%
%TD*%
%TA.AperFunction,Conductor*%
%TO.N,Net-(U1-THR)*%
G36*
X110465914Y-83703427D02*
G01*
X110468187Y-83706634D01*
X110651547Y-84088362D01*
X110652123Y-84097061D01*
X110376122Y-84941953D01*
X110370295Y-84948753D01*
X110361367Y-84949442D01*
X110354567Y-84943615D01*
X110353878Y-84941953D01*
X110077876Y-84097061D01*
X110078452Y-84088362D01*
X110261813Y-83706634D01*
X110268484Y-83700660D01*
X110272359Y-83700000D01*
X110457641Y-83700000D01*
X110465914Y-83703427D01*
G37*
%TD.AperFunction*%
%TD*%
%TA.AperFunction,Conductor*%
%TO.N,Net-(U1-THR)*%
G36*
X110802364Y-84044726D02*
G01*
X110809308Y-84048077D01*
X110942772Y-84181541D01*
X110946199Y-84189814D01*
X110945626Y-84193429D01*
X110668440Y-85046605D01*
X110662625Y-85053415D01*
X110654253Y-85054283D01*
X110375169Y-84978654D01*
X110368080Y-84973182D01*
X110366829Y-84964728D01*
X110582734Y-84030069D01*
X110587935Y-84022779D01*
X110595462Y-84021078D01*
X110802364Y-84044726D01*
G37*
%TD.AperFunction*%
%TD*%
%TA.AperFunction,Conductor*%
%TO.N,Net-(U1-CV)*%
G36*
X108801978Y-84693932D02*
G01*
X109087514Y-84966888D01*
X109091126Y-84975082D01*
X109087886Y-84983430D01*
X109087859Y-84983458D01*
X108801586Y-85280936D01*
X108793381Y-85284521D01*
X108786948Y-85282740D01*
X108500492Y-85103437D01*
X108495298Y-85096143D01*
X108495000Y-85093520D01*
X108495000Y-84906046D01*
X108498427Y-84897773D01*
X108499927Y-84896505D01*
X108787125Y-84692844D01*
X108795856Y-84690855D01*
X108801978Y-84693932D01*
G37*
%TD.AperFunction*%
%TD*%
%TA.AperFunction,Conductor*%
%TO.N,Net-(U1-CV)*%
G36*
X107577785Y-84523172D02*
G01*
X108219187Y-84896615D01*
X108224612Y-84903739D01*
X108225000Y-84906726D01*
X108225000Y-85093273D01*
X108221573Y-85101546D01*
X108219187Y-85103384D01*
X107577788Y-85476826D01*
X107568914Y-85478027D01*
X107564369Y-85475668D01*
X107009641Y-85008953D01*
X107005516Y-85001004D01*
X107008220Y-84992468D01*
X107009641Y-84991047D01*
X107564371Y-84524330D01*
X107572905Y-84521627D01*
X107577785Y-84523172D01*
G37*
%TD.AperFunction*%
%TD*%
%TA.AperFunction,Conductor*%
%TO.N,Net-(Q2-D)*%
G36*
X122684351Y-58239845D02*
G01*
X122684550Y-58239963D01*
X123105160Y-58497451D01*
X123174699Y-58540021D01*
X123179965Y-58547264D01*
X123178569Y-58556109D01*
X123174699Y-58559979D01*
X122684580Y-58860018D01*
X122675735Y-58861414D01*
X122675489Y-58861352D01*
X122491932Y-58812743D01*
X122263705Y-58752305D01*
X122256585Y-58746875D01*
X122255000Y-58740995D01*
X122255000Y-58359004D01*
X122258427Y-58350731D01*
X122263702Y-58347695D01*
X122675478Y-58238650D01*
X122684351Y-58239845D01*
G37*
%TD.AperFunction*%
%TD*%
%TA.AperFunction,Conductor*%
%TO.N,Net-(Q2-D)*%
G36*
X122584563Y-58348298D02*
G01*
X122592117Y-58353106D01*
X122594236Y-58359821D01*
X122594236Y-58740178D01*
X122590809Y-58748451D01*
X122584563Y-58751701D01*
X122069760Y-58842259D01*
X122061018Y-58840317D01*
X122056265Y-58833056D01*
X122039462Y-58750000D01*
X121999469Y-58552318D01*
X121999469Y-58547680D01*
X122037475Y-58359821D01*
X122056265Y-58266942D01*
X122061265Y-58259514D01*
X122069760Y-58257740D01*
X122584563Y-58348298D01*
G37*
%TD.AperFunction*%
%TD*%
%TA.AperFunction,Conductor*%
%TO.N,Net-(D2-A)*%
G36*
X123705490Y-60140271D02*
G01*
X124118532Y-60346766D01*
X124124399Y-60353531D01*
X124125000Y-60357231D01*
X124125000Y-60542768D01*
X124121573Y-60551041D01*
X124118532Y-60553233D01*
X123705491Y-60759727D01*
X123696559Y-60760361D01*
X123694150Y-60759241D01*
X123205299Y-60459978D01*
X123200034Y-60452736D01*
X123201430Y-60443891D01*
X123205298Y-60440022D01*
X123694152Y-60140757D01*
X123702995Y-60139362D01*
X123705490Y-60140271D01*
G37*
%TD.AperFunction*%
%TD*%
%TA.AperFunction,Conductor*%
%TO.N,Net-(D2-A)*%
G36*
X130322249Y-60826686D02*
G01*
X131175836Y-61195438D01*
X131182072Y-61201865D01*
X131182014Y-61210636D01*
X131003503Y-61643920D01*
X130997183Y-61650264D01*
X130993379Y-61651142D01*
X130409120Y-61685854D01*
X130400658Y-61682924D01*
X130397264Y-61677681D01*
X130175658Y-60971719D01*
X130176450Y-60962799D01*
X130178545Y-60959945D01*
X130309337Y-60829153D01*
X130317609Y-60825727D01*
X130322249Y-60826686D01*
G37*
%TD.AperFunction*%
%TD*%
%TA.AperFunction,Conductor*%
%TO.N,Net-(D2-A)*%
G36*
X135809942Y-60714464D02*
G01*
X136391004Y-60954551D01*
X136495651Y-60997790D01*
X136501988Y-61004116D01*
X136502489Y-61005591D01*
X136657358Y-61586925D01*
X136656176Y-61595802D01*
X136649064Y-61601243D01*
X136647400Y-61601559D01*
X135380667Y-61748486D01*
X135372054Y-61746035D01*
X135367697Y-61738212D01*
X135367619Y-61736864D01*
X135367619Y-61552836D01*
X135368917Y-61547480D01*
X135795074Y-60719922D01*
X135801908Y-60714135D01*
X135809942Y-60714464D01*
G37*
%TD.AperFunction*%
%TD*%
%TA.AperFunction,Conductor*%
%TO.N,Net-(D2-A)*%
G36*
X131468584Y-61221355D02*
G01*
X132044058Y-61546641D01*
X132049573Y-61553694D01*
X132050000Y-61556825D01*
X132050000Y-61743174D01*
X132046573Y-61751447D01*
X132044057Y-61753359D01*
X131468587Y-62078643D01*
X131459699Y-62079731D01*
X131454831Y-62076997D01*
X131008114Y-61658537D01*
X131004420Y-61650382D01*
X131007575Y-61642001D01*
X131008105Y-61641470D01*
X131454833Y-61223001D01*
X131463212Y-61219847D01*
X131468584Y-61221355D01*
G37*
%TD.AperFunction*%
%TD*%
%TA.AperFunction,Conductor*%
%TO.N,VCC*%
G36*
X126324456Y-59188633D02*
G01*
X126736296Y-59297695D01*
X126743415Y-59303124D01*
X126745000Y-59309004D01*
X126745000Y-59690995D01*
X126741573Y-59699268D01*
X126736295Y-59702305D01*
X126324523Y-59811349D01*
X126315648Y-59810154D01*
X126315419Y-59810018D01*
X126120993Y-59690995D01*
X125825299Y-59509978D01*
X125820034Y-59502736D01*
X125821430Y-59493891D01*
X125825298Y-59490022D01*
X126315421Y-59189980D01*
X126324264Y-59188585D01*
X126324456Y-59188633D01*
G37*
%TD.AperFunction*%
%TD*%
%TA.AperFunction,Conductor*%
%TO.N,VCC*%
G36*
X130993380Y-58348857D02*
G01*
X131001434Y-58352768D01*
X131003503Y-58356079D01*
X131182438Y-58790393D01*
X131182421Y-58799348D01*
X131177325Y-58805065D01*
X130393390Y-59242863D01*
X130384496Y-59243905D01*
X130379412Y-59240921D01*
X130108568Y-58970077D01*
X130105141Y-58961804D01*
X130106198Y-58956944D01*
X130396669Y-58320896D01*
X130403222Y-58314796D01*
X130408002Y-58314079D01*
X130993380Y-58348857D01*
G37*
%TD.AperFunction*%
%TD*%
%TA.AperFunction,Conductor*%
%TO.N,VCC*%
G36*
X113578988Y-86154823D02*
G01*
X113579938Y-86155675D01*
X113851976Y-86427713D01*
X113854439Y-86431336D01*
X114077701Y-86946782D01*
X114077845Y-86955735D01*
X114074975Y-86959960D01*
X113508731Y-87491841D01*
X113500355Y-87495007D01*
X113492193Y-87491323D01*
X113491427Y-87490420D01*
X113009397Y-86860053D01*
X113007094Y-86851400D01*
X113009565Y-86845624D01*
X113562542Y-86156623D01*
X113570391Y-86152318D01*
X113578988Y-86154823D01*
G37*
%TD.AperFunction*%
%TD*%
%TA.AperFunction,Conductor*%
%TO.N,VCC*%
G36*
X113760062Y-85839634D02*
G01*
X113998734Y-85997984D01*
X114002015Y-86001265D01*
X114160365Y-86239937D01*
X114162084Y-86248725D01*
X114157331Y-86255986D01*
X113729277Y-86555972D01*
X113720535Y-86557914D01*
X113714289Y-86554664D01*
X113445335Y-86285710D01*
X113441908Y-86277437D01*
X113444025Y-86270725D01*
X113744015Y-85842666D01*
X113751567Y-85837860D01*
X113760062Y-85839634D01*
G37*
%TD.AperFunction*%
%TD*%
%TA.AperFunction,Conductor*%
%TO.N,VCC*%
G36*
X113210693Y-84844641D02*
G01*
X113551948Y-85267525D01*
X113554477Y-85276116D01*
X113551116Y-85283146D01*
X113275679Y-85558584D01*
X113216903Y-85618241D01*
X113208656Y-85621730D01*
X113200358Y-85618364D01*
X113197933Y-85614905D01*
X112909183Y-84984961D01*
X112908851Y-84976013D01*
X112914942Y-84969451D01*
X113196747Y-84841337D01*
X113205695Y-84841034D01*
X113210693Y-84844641D01*
G37*
%TD.AperFunction*%
%TD*%
%TA.AperFunction,Conductor*%
%TO.N,VCC*%
G36*
X113729275Y-85444026D02*
G01*
X114157331Y-85744013D01*
X114162139Y-85751567D01*
X114160365Y-85760062D01*
X114002015Y-85998734D01*
X113998734Y-86002015D01*
X113760062Y-86160365D01*
X113751274Y-86162084D01*
X113744013Y-86157331D01*
X113444026Y-85729275D01*
X113442085Y-85720535D01*
X113445333Y-85714291D01*
X113714290Y-85445334D01*
X113722562Y-85441908D01*
X113729275Y-85444026D01*
G37*
%TD.AperFunction*%
%TD*%
%TA.AperFunction,Conductor*%
%TO.N,Net-(D3-K)*%
G36*
X110598131Y-92755950D02*
G01*
X110604454Y-92762291D01*
X110604457Y-92762298D01*
X111092004Y-93946340D01*
X111091985Y-93955295D01*
X111089458Y-93959068D01*
X110959068Y-94089458D01*
X110950795Y-94092885D01*
X110946340Y-94092004D01*
X109762298Y-93604457D01*
X109755953Y-93598138D01*
X109755934Y-93589184D01*
X109997437Y-93003790D01*
X110003760Y-92997450D01*
X110589177Y-92755937D01*
X110598131Y-92755950D01*
G37*
%TD.AperFunction*%
%TD*%
%TA.AperFunction,Conductor*%
%TO.N,Net-(D3-K)*%
G36*
X128579202Y-102504210D02*
G01*
X130283487Y-103489872D01*
X130288933Y-103496980D01*
X130287757Y-103505858D01*
X130283487Y-103510128D01*
X128579202Y-104495789D01*
X128570324Y-104496965D01*
X128565611Y-104494441D01*
X127553967Y-103603493D01*
X127550023Y-103595454D01*
X127550000Y-103594713D01*
X127550000Y-103405286D01*
X127553427Y-103397013D01*
X127553967Y-103396506D01*
X128565612Y-102505557D01*
X128574085Y-102502661D01*
X128579202Y-102504210D01*
G37*
%TD.AperFunction*%
%TD*%
%TA.AperFunction,Conductor*%
%TO.N,Net-(D3-A)*%
G36*
X135698554Y-103503460D02*
G01*
X135702040Y-103510714D01*
X135811608Y-104639343D01*
X135808997Y-104647909D01*
X135802120Y-104651973D01*
X133688535Y-105048400D01*
X133679772Y-105046557D01*
X133674879Y-105039058D01*
X133674678Y-105036901D01*
X133674678Y-104852200D01*
X133674922Y-104849823D01*
X133948093Y-103533094D01*
X133953128Y-103525692D01*
X133959385Y-103523774D01*
X135690237Y-103500146D01*
X135698554Y-103503460D01*
G37*
%TD.AperFunction*%
%TD*%
%TA.AperFunction,Conductor*%
%TO.N,Net-(D3-A)*%
G36*
X111735767Y-86203427D02*
G01*
X111738128Y-86206821D01*
X112077466Y-86946689D01*
X112077800Y-86955638D01*
X112074849Y-86960088D01*
X111509019Y-87492512D01*
X111500645Y-87495686D01*
X111492480Y-87492009D01*
X111492038Y-87491512D01*
X110979514Y-86880721D01*
X110976823Y-86872181D01*
X110979493Y-86865708D01*
X111531492Y-86204204D01*
X111539423Y-86200047D01*
X111540475Y-86200000D01*
X111727494Y-86200000D01*
X111735767Y-86203427D01*
G37*
%TD.AperFunction*%
%TD*%
%TA.AperFunction,Conductor*%
%TO.N,Net-(D3-A)*%
G36*
X111645433Y-85006384D02*
G01*
X111646122Y-85008046D01*
X111922123Y-85852938D01*
X111921547Y-85861637D01*
X111738187Y-86243366D01*
X111731516Y-86249340D01*
X111727641Y-86250000D01*
X111542359Y-86250000D01*
X111534086Y-86246573D01*
X111531813Y-86243366D01*
X111348452Y-85861637D01*
X111347876Y-85852939D01*
X111623878Y-85008045D01*
X111629705Y-85001246D01*
X111638633Y-85000557D01*
X111645433Y-85006384D01*
G37*
%TD.AperFunction*%
%TD*%
%TA.AperFunction,Conductor*%
%TO.N,Net-(D3-A)*%
G36*
X141079202Y-102504210D02*
G01*
X142783487Y-103489872D01*
X142788933Y-103496980D01*
X142787757Y-103505858D01*
X142783487Y-103510128D01*
X141079202Y-104495789D01*
X141070324Y-104496965D01*
X141065611Y-104494441D01*
X140053967Y-103603493D01*
X140050023Y-103595454D01*
X140050000Y-103594713D01*
X140050000Y-103405286D01*
X140053427Y-103397013D01*
X140053967Y-103396506D01*
X141065612Y-102505557D01*
X141074085Y-102502661D01*
X141079202Y-102504210D01*
G37*
%TD.AperFunction*%
%TD*%
%TA.AperFunction,Conductor*%
%TO.N,Net-(D3-A)*%
G36*
X137434388Y-102505558D02*
G01*
X138446033Y-103396506D01*
X138449977Y-103404545D01*
X138450000Y-103405286D01*
X138450000Y-103594713D01*
X138446573Y-103602986D01*
X138446033Y-103603493D01*
X137434388Y-104494441D01*
X137425914Y-104497338D01*
X137420797Y-104495789D01*
X135716512Y-103510128D01*
X135711066Y-103503020D01*
X135712242Y-103494142D01*
X135716512Y-103489872D01*
X135877949Y-103396506D01*
X137420797Y-102504209D01*
X137429675Y-102503034D01*
X137434388Y-102505558D01*
G37*
%TD.AperFunction*%
%TD*%
%TA.AperFunction,Conductor*%
%TO.N,Net-(D3-A)*%
G36*
X110909986Y-87138934D02*
G01*
X111491521Y-87493689D01*
X111496799Y-87500923D01*
X111495891Y-87508914D01*
X111153894Y-88192218D01*
X111147126Y-88198082D01*
X111141425Y-88198507D01*
X111020595Y-88177481D01*
X110550094Y-88095608D01*
X110543827Y-88092354D01*
X110411500Y-87960027D01*
X110408073Y-87951754D01*
X110409753Y-87945714D01*
X110893928Y-87142910D01*
X110901133Y-87137597D01*
X110909986Y-87138934D01*
G37*
%TD.AperFunction*%
%TD*%
%TA.AperFunction,Conductor*%
%TO.N,Net-(D4-A)*%
G36*
X110598131Y-90755950D02*
G01*
X110604454Y-90762291D01*
X110604457Y-90762298D01*
X111092004Y-91946340D01*
X111091985Y-91955295D01*
X111089458Y-91959068D01*
X110959068Y-92089458D01*
X110950795Y-92092885D01*
X110946340Y-92092004D01*
X109762298Y-91604457D01*
X109755953Y-91598138D01*
X109755934Y-91589184D01*
X109997437Y-91003790D01*
X110003760Y-90997450D01*
X110589177Y-90755937D01*
X110598131Y-90755950D01*
G37*
%TD.AperFunction*%
%TD*%
%TA.AperFunction,Conductor*%
%TO.N,Net-(D4-A)*%
G36*
X146420672Y-101574864D02*
G01*
X148454682Y-102346384D01*
X148461202Y-102352522D01*
X148461938Y-102359935D01*
X148203228Y-103489697D01*
X148198041Y-103496996D01*
X148189615Y-103498575D01*
X146458368Y-103165822D01*
X146450890Y-103160895D01*
X146448963Y-103155756D01*
X146272877Y-101719266D01*
X146275272Y-101710637D01*
X146276209Y-101709577D01*
X146408256Y-101577530D01*
X146416528Y-101574104D01*
X146420672Y-101574864D01*
G37*
%TD.AperFunction*%
%TD*%
%TA.AperFunction,Conductor*%
%TO.N,Net-(D6-K)*%
G36*
X182074172Y-81333820D02*
G01*
X182076706Y-81337609D01*
X182316205Y-81914856D01*
X182316210Y-81923811D01*
X182309882Y-81930147D01*
X182309839Y-81930165D01*
X182079747Y-82024555D01*
X182070792Y-82024524D01*
X182065005Y-82019278D01*
X181826638Y-81576596D01*
X181825734Y-81567689D01*
X181828666Y-81562780D01*
X181963934Y-81427513D01*
X182057629Y-81333818D01*
X182065899Y-81330393D01*
X182074172Y-81333820D01*
G37*
%TD.AperFunction*%
%TD*%
%TA.AperFunction,Conductor*%
%TO.N,Net-(D6-K)*%
G36*
X179228106Y-79723938D02*
G01*
X180019746Y-80246532D01*
X180024762Y-80253948D01*
X180025000Y-80256295D01*
X180025000Y-80443704D01*
X180021573Y-80451977D01*
X180019746Y-80453468D01*
X179228108Y-80976060D01*
X179219315Y-80977758D01*
X179213962Y-80975104D01*
X178509073Y-80358807D01*
X178505101Y-80350783D01*
X178507967Y-80342299D01*
X178509074Y-80341192D01*
X178608859Y-80253948D01*
X179213964Y-79724893D01*
X179222445Y-79722029D01*
X179228106Y-79723938D01*
G37*
%TD.AperFunction*%
%TD*%
%TA.AperFunction,Conductor*%
%TO.N,Net-(Q1-D)*%
G36*
X177786035Y-82824893D02*
G01*
X178148764Y-83142034D01*
X178490925Y-83441192D01*
X178494898Y-83449217D01*
X178492032Y-83457701D01*
X178490925Y-83458808D01*
X177786038Y-84075104D01*
X177777554Y-84077970D01*
X177771891Y-84076060D01*
X176980254Y-83553468D01*
X176975238Y-83546051D01*
X176975000Y-83543704D01*
X176975000Y-83356295D01*
X176978427Y-83348022D01*
X176980250Y-83346534D01*
X177771893Y-82823938D01*
X177780684Y-82822241D01*
X177786035Y-82824893D01*
G37*
%TD.AperFunction*%
%TD*%
%TA.AperFunction,Conductor*%
%TO.N,Net-(Q1-D)*%
G36*
X167812142Y-102403427D02*
G01*
X167813489Y-102405040D01*
X168029450Y-102716984D01*
X168031341Y-102725737D01*
X168028116Y-102731904D01*
X167718286Y-103042688D01*
X167710018Y-103046128D01*
X167701740Y-103042714D01*
X167701714Y-103042688D01*
X167391883Y-102731904D01*
X167388469Y-102723626D01*
X167390548Y-102716985D01*
X167606511Y-102405040D01*
X167614038Y-102400189D01*
X167616131Y-102400000D01*
X167803869Y-102400000D01*
X167812142Y-102403427D01*
G37*
%TD.AperFunction*%
%TD*%
%TA.AperFunction,Conductor*%
%TO.N,Net-(Q1-G)*%
G36*
X160228106Y-104423938D02*
G01*
X161019746Y-104946532D01*
X161024762Y-104953948D01*
X161025000Y-104956295D01*
X161025000Y-105143704D01*
X161021573Y-105151977D01*
X161019746Y-105153468D01*
X160228108Y-105676060D01*
X160219315Y-105677758D01*
X160213962Y-105675104D01*
X159509073Y-105058807D01*
X159505101Y-105050783D01*
X159507967Y-105042299D01*
X159509074Y-105041192D01*
X159608859Y-104953948D01*
X160213964Y-104424893D01*
X160222445Y-104422029D01*
X160228106Y-104423938D01*
G37*
%TD.AperFunction*%
%TD*%
%TA.AperFunction,Conductor*%
%TO.N,Net-(Q1-G)*%
G36*
X166746415Y-104698592D02*
G01*
X167673677Y-104940272D01*
X167680818Y-104945675D01*
X167682048Y-104954545D01*
X167676645Y-104961686D01*
X167674563Y-104962647D01*
X166813690Y-105261457D01*
X166806858Y-105261714D01*
X166393705Y-105152305D01*
X166386585Y-105146875D01*
X166385000Y-105140995D01*
X166385000Y-104956043D01*
X166388427Y-104947770D01*
X166389928Y-104946502D01*
X166391093Y-104945675D01*
X166736695Y-104700373D01*
X166745425Y-104698380D01*
X166746415Y-104698592D01*
G37*
%TD.AperFunction*%
%TD*%
D35*
X114750000Y-66500000D03*
X161750000Y-101500000D03*
X138500000Y-60750000D03*
X118500000Y-93900000D03*
X115080000Y-82200000D03*
X105500000Y-83000000D03*
X122000000Y-58550000D03*
X106000000Y-81000000D03*
X114000000Y-86000000D03*
D36*
X117170000Y-70500000D03*
X112670000Y-70500000D03*
X108170000Y-70500000D03*
X108170000Y-77000000D03*
X112670000Y-77000000D03*
X117170000Y-77000000D03*
D37*
X183500000Y-72000000D03*
X183500000Y-92000000D03*
D36*
X114750000Y-62250000D03*
X118250000Y-62250000D03*
X148500000Y-93500000D03*
X148500000Y-69500000D03*
X124780000Y-69500000D03*
X124780000Y-82200000D03*
M02*
